<?xml version="1.0" encoding="utf-8"?>
<svg xmlns="http://www.w3.org/2000/svg" xmlns:xlink="http://www.w3.org/1999/xlink" width="500" height="900" viewBox="0 0 2000 3600">
<defs>
  <clipPath id="clip230">
    <rect x="0" y="0" width="2000" height="3600"/>
  </clipPath>
</defs>
<path clip-path="url(#clip230)" d="M0 3600 L2000 3600 L2000 0 L0 0  Z" fill="#ffffff" fill-rule="evenodd" fill-opacity="1"/>
<defs>
  <clipPath id="clip231">
    <rect x="720" y="360" width="2000" height="2521"/>
  </clipPath>
</defs>
<path clip-path="url(#clip230)" d="M159.162 712.279 L1952.76 712.279 L1952.76 153.712 L159.162 153.712  Z" fill="#ffffff" fill-rule="evenodd" fill-opacity="1"/>
<defs>
  <clipPath id="clip232">
    <rect x="159" y="153" width="1795" height="560"/>
  </clipPath>
</defs>
<polyline clip-path="url(#clip232)" style="stroke:#000000; stroke-linecap:round; stroke-linejoin:round; stroke-width:2; stroke-opacity:0.1; fill:none" points="209.698,712.279 209.698,153.712 "/>
<polyline clip-path="url(#clip232)" style="stroke:#000000; stroke-linecap:round; stroke-linejoin:round; stroke-width:2; stroke-opacity:0.1; fill:none" points="632.829,712.279 632.829,153.712 "/>
<polyline clip-path="url(#clip232)" style="stroke:#000000; stroke-linecap:round; stroke-linejoin:round; stroke-width:2; stroke-opacity:0.1; fill:none" points="1055.96,712.279 1055.96,153.712 "/>
<polyline clip-path="url(#clip232)" style="stroke:#000000; stroke-linecap:round; stroke-linejoin:round; stroke-width:2; stroke-opacity:0.1; fill:none" points="1479.09,712.279 1479.09,153.712 "/>
<polyline clip-path="url(#clip232)" style="stroke:#000000; stroke-linecap:round; stroke-linejoin:round; stroke-width:2; stroke-opacity:0.1; fill:none" points="1902.22,712.279 1902.22,153.712 "/>
<polyline clip-path="url(#clip230)" style="stroke:#000000; stroke-linecap:round; stroke-linejoin:round; stroke-width:4; stroke-opacity:1; fill:none" points="159.162,169.521 1952.76,169.521 "/>
<polyline clip-path="url(#clip230)" style="stroke:#000000; stroke-linecap:round; stroke-linejoin:round; stroke-width:4; stroke-opacity:0; fill:none" points="209.698,169.521 209.698,169.521 "/>
<polyline clip-path="url(#clip230)" style="stroke:#000000; stroke-linecap:round; stroke-linejoin:round; stroke-width:4; stroke-opacity:0; fill:none" points="632.829,169.521 632.829,169.521 "/>
<polyline clip-path="url(#clip230)" style="stroke:#000000; stroke-linecap:round; stroke-linejoin:round; stroke-width:4; stroke-opacity:0; fill:none" points="1055.96,169.521 1055.96,169.521 "/>
<polyline clip-path="url(#clip230)" style="stroke:#000000; stroke-linecap:round; stroke-linejoin:round; stroke-width:4; stroke-opacity:0; fill:none" points="1479.09,169.521 1479.09,169.521 "/>
<polyline clip-path="url(#clip230)" style="stroke:#000000; stroke-linecap:round; stroke-linejoin:round; stroke-width:4; stroke-opacity:0; fill:none" points="1902.22,169.521 1902.22,169.521 "/>
<path clip-path="url(#clip230)" d="M187.083 752.798 Q183.472 752.798 181.643 756.363 Q179.837 759.904 179.837 767.034 Q179.837 774.14 181.643 777.705 Q183.472 781.247 187.083 781.247 Q190.717 781.247 192.522 777.705 Q194.351 774.14 194.351 767.034 Q194.351 759.904 192.522 756.363 Q190.717 752.798 187.083 752.798 M187.083 749.094 Q192.893 749.094 195.948 753.701 Q199.027 758.284 199.027 767.034 Q199.027 775.761 195.948 780.367 Q192.893 784.95 187.083 784.95 Q181.273 784.95 178.194 780.367 Q175.138 775.761 175.138 767.034 Q175.138 758.284 178.194 753.701 Q181.273 749.094 187.083 749.094 Z" fill="#000000" fill-rule="nonzero" fill-opacity="1" /><path clip-path="url(#clip230)" d="M207.245 778.4 L212.129 778.4 L212.129 784.279 L207.245 784.279 L207.245 778.4 Z" fill="#000000" fill-rule="nonzero" fill-opacity="1" /><path clip-path="url(#clip230)" d="M232.314 752.798 Q228.703 752.798 226.874 756.363 Q225.069 759.904 225.069 767.034 Q225.069 774.14 226.874 777.705 Q228.703 781.247 232.314 781.247 Q235.948 781.247 237.754 777.705 Q239.582 774.14 239.582 767.034 Q239.582 759.904 237.754 756.363 Q235.948 752.798 232.314 752.798 M232.314 749.094 Q238.124 749.094 241.18 753.701 Q244.258 758.284 244.258 767.034 Q244.258 775.761 241.18 780.367 Q238.124 784.95 232.314 784.95 Q226.504 784.95 223.425 780.367 Q220.37 775.761 220.37 767.034 Q220.37 758.284 223.425 753.701 Q226.504 749.094 232.314 749.094 Z" fill="#000000" fill-rule="nonzero" fill-opacity="1" /><path clip-path="url(#clip230)" d="M610.711 752.798 Q607.1 752.798 605.271 756.363 Q603.465 759.904 603.465 767.034 Q603.465 774.14 605.271 777.705 Q607.1 781.247 610.711 781.247 Q614.345 781.247 616.15 777.705 Q617.979 774.14 617.979 767.034 Q617.979 759.904 616.15 756.363 Q614.345 752.798 610.711 752.798 M610.711 749.094 Q616.521 749.094 619.576 753.701 Q622.655 758.284 622.655 767.034 Q622.655 775.761 619.576 780.367 Q616.521 784.95 610.711 784.95 Q604.901 784.95 601.822 780.367 Q598.766 775.761 598.766 767.034 Q598.766 758.284 601.822 753.701 Q604.901 749.094 610.711 749.094 Z" fill="#000000" fill-rule="nonzero" fill-opacity="1" /><path clip-path="url(#clip230)" d="M630.873 778.4 L635.757 778.4 L635.757 784.279 L630.873 784.279 L630.873 778.4 Z" fill="#000000" fill-rule="nonzero" fill-opacity="1" /><path clip-path="url(#clip230)" d="M645.988 749.719 L664.345 749.719 L664.345 753.654 L650.271 753.654 L650.271 762.127 Q651.289 761.779 652.308 761.617 Q653.326 761.432 654.345 761.432 Q660.132 761.432 663.511 764.603 Q666.891 767.775 666.891 773.191 Q666.891 778.77 663.419 781.872 Q659.947 784.95 653.627 784.95 Q651.451 784.95 649.183 784.58 Q646.937 784.21 644.53 783.469 L644.53 778.77 Q646.613 779.904 648.835 780.46 Q651.058 781.015 653.535 781.015 Q657.539 781.015 659.877 778.909 Q662.215 776.802 662.215 773.191 Q662.215 769.58 659.877 767.474 Q657.539 765.367 653.535 765.367 Q651.66 765.367 649.785 765.784 Q647.933 766.201 645.988 767.08 L645.988 749.719 Z" fill="#000000" fill-rule="nonzero" fill-opacity="1" /><path clip-path="url(#clip230)" d="M1023.11 780.344 L1030.75 780.344 L1030.75 753.978 L1022.44 755.645 L1022.44 751.386 L1030.7 749.719 L1035.38 749.719 L1035.38 780.344 L1043.02 780.344 L1043.02 784.279 L1023.11 784.279 L1023.11 780.344 Z" fill="#000000" fill-rule="nonzero" fill-opacity="1" /><path clip-path="url(#clip230)" d="M1052.46 778.4 L1057.35 778.4 L1057.35 784.279 L1052.46 784.279 L1052.46 778.4 Z" fill="#000000" fill-rule="nonzero" fill-opacity="1" /><path clip-path="url(#clip230)" d="M1077.53 752.798 Q1073.92 752.798 1072.09 756.363 Q1070.29 759.904 1070.29 767.034 Q1070.29 774.14 1072.09 777.705 Q1073.92 781.247 1077.53 781.247 Q1081.17 781.247 1082.97 777.705 Q1084.8 774.14 1084.8 767.034 Q1084.8 759.904 1082.97 756.363 Q1081.17 752.798 1077.53 752.798 M1077.53 749.094 Q1083.34 749.094 1086.4 753.701 Q1089.48 758.284 1089.48 767.034 Q1089.48 775.761 1086.4 780.367 Q1083.34 784.95 1077.53 784.95 Q1071.72 784.95 1068.64 780.367 Q1065.59 775.761 1065.59 767.034 Q1065.59 758.284 1068.64 753.701 Q1071.72 749.094 1077.53 749.094 Z" fill="#000000" fill-rule="nonzero" fill-opacity="1" /><path clip-path="url(#clip230)" d="M1446.74 780.344 L1454.38 780.344 L1454.38 753.978 L1446.07 755.645 L1446.07 751.386 L1454.33 749.719 L1459.01 749.719 L1459.01 780.344 L1466.65 780.344 L1466.65 784.279 L1446.74 784.279 L1446.74 780.344 Z" fill="#000000" fill-rule="nonzero" fill-opacity="1" /><path clip-path="url(#clip230)" d="M1476.09 778.4 L1480.98 778.4 L1480.98 784.279 L1476.09 784.279 L1476.09 778.4 Z" fill="#000000" fill-rule="nonzero" fill-opacity="1" /><path clip-path="url(#clip230)" d="M1491.21 749.719 L1509.56 749.719 L1509.56 753.654 L1495.49 753.654 L1495.49 762.127 Q1496.51 761.779 1497.53 761.617 Q1498.55 761.432 1499.56 761.432 Q1505.35 761.432 1508.73 764.603 Q1512.11 767.775 1512.11 773.191 Q1512.11 778.77 1508.64 781.872 Q1505.17 784.95 1498.85 784.95 Q1496.67 784.95 1494.4 784.58 Q1492.16 784.21 1489.75 783.469 L1489.75 778.77 Q1491.83 779.904 1494.05 780.46 Q1496.28 781.015 1498.75 781.015 Q1502.76 781.015 1505.1 778.909 Q1507.43 776.802 1507.43 773.191 Q1507.43 769.58 1505.1 767.474 Q1502.76 765.367 1498.75 765.367 Q1496.88 765.367 1495 765.784 Q1493.15 766.201 1491.21 767.08 L1491.21 749.719 Z" fill="#000000" fill-rule="nonzero" fill-opacity="1" /><path clip-path="url(#clip230)" d="M1873.46 780.344 L1889.78 780.344 L1889.78 784.279 L1867.83 784.279 L1867.83 780.344 Q1870.5 777.589 1875.08 772.96 Q1879.68 768.307 1880.87 766.964 Q1883.11 764.441 1883.99 762.705 Q1884.89 760.946 1884.89 759.256 Q1884.89 756.502 1882.95 754.765 Q1881.03 753.029 1877.93 753.029 Q1875.73 753.029 1873.27 753.793 Q1870.84 754.557 1868.06 756.108 L1868.06 751.386 Q1870.89 750.252 1873.34 749.673 Q1875.8 749.094 1877.83 749.094 Q1883.2 749.094 1886.4 751.779 Q1889.59 754.465 1889.59 758.955 Q1889.59 761.085 1888.78 763.006 Q1888 764.904 1885.89 767.497 Q1885.31 768.168 1882.21 771.386 Q1879.11 774.58 1873.46 780.344 Z" fill="#000000" fill-rule="nonzero" fill-opacity="1" /><path clip-path="url(#clip230)" d="M1899.59 778.4 L1904.48 778.4 L1904.48 784.279 L1899.59 784.279 L1899.59 778.4 Z" fill="#000000" fill-rule="nonzero" fill-opacity="1" /><path clip-path="url(#clip230)" d="M1924.66 752.798 Q1921.05 752.798 1919.22 756.363 Q1917.42 759.904 1917.42 767.034 Q1917.42 774.14 1919.22 777.705 Q1921.05 781.247 1924.66 781.247 Q1928.3 781.247 1930.1 777.705 Q1931.93 774.14 1931.93 767.034 Q1931.93 759.904 1930.1 756.363 Q1928.3 752.798 1924.66 752.798 M1924.66 749.094 Q1930.47 749.094 1933.53 753.701 Q1936.61 758.284 1936.61 767.034 Q1936.61 775.761 1933.53 780.367 Q1930.47 784.95 1924.66 784.95 Q1918.85 784.95 1915.77 780.367 Q1912.72 775.761 1912.72 767.034 Q1912.72 758.284 1915.77 753.701 Q1918.85 749.094 1924.66 749.094 Z" fill="#000000" fill-rule="nonzero" fill-opacity="1" /><polyline clip-path="url(#clip232)" style="stroke:#000000; stroke-linecap:round; stroke-linejoin:round; stroke-width:2; stroke-opacity:0.1; fill:none" points="159.162,697.571 1952.76,697.571 "/>
<polyline clip-path="url(#clip232)" style="stroke:#000000; stroke-linecap:round; stroke-linejoin:round; stroke-width:2; stroke-opacity:0.1; fill:none" points="159.162,565.559 1952.76,565.559 "/>
<polyline clip-path="url(#clip232)" style="stroke:#000000; stroke-linecap:round; stroke-linejoin:round; stroke-width:2; stroke-opacity:0.1; fill:none" points="159.162,433.546 1952.76,433.546 "/>
<polyline clip-path="url(#clip232)" style="stroke:#000000; stroke-linecap:round; stroke-linejoin:round; stroke-width:2; stroke-opacity:0.1; fill:none" points="159.162,301.533 1952.76,301.533 "/>
<polyline clip-path="url(#clip232)" style="stroke:#000000; stroke-linecap:round; stroke-linejoin:round; stroke-width:2; stroke-opacity:0.1; fill:none" points="159.162,169.521 1952.76,169.521 "/>
<polyline clip-path="url(#clip230)" style="stroke:#000000; stroke-linecap:round; stroke-linejoin:round; stroke-width:4; stroke-opacity:1; fill:none" points="209.698,712.279 209.698,153.712 "/>
<polyline clip-path="url(#clip230)" style="stroke:#000000; stroke-linecap:round; stroke-linejoin:round; stroke-width:4; stroke-opacity:0; fill:none" points="209.698,697.571 209.698,697.571 "/>
<polyline clip-path="url(#clip230)" style="stroke:#000000; stroke-linecap:round; stroke-linejoin:round; stroke-width:4; stroke-opacity:0; fill:none" points="209.698,565.559 209.698,565.559 "/>
<polyline clip-path="url(#clip230)" style="stroke:#000000; stroke-linecap:round; stroke-linejoin:round; stroke-width:4; stroke-opacity:0; fill:none" points="209.698,433.546 209.698,433.546 "/>
<polyline clip-path="url(#clip230)" style="stroke:#000000; stroke-linecap:round; stroke-linejoin:round; stroke-width:4; stroke-opacity:0; fill:none" points="209.698,301.533 209.698,301.533 "/>
<polyline clip-path="url(#clip230)" style="stroke:#000000; stroke-linecap:round; stroke-linejoin:round; stroke-width:4; stroke-opacity:0; fill:none" points="209.698,169.521 209.698,169.521 "/>
<path clip-path="url(#clip230)" d="M42.9632 698.023 L72.639 698.023 L72.639 701.958 L42.9632 701.958 L42.9632 698.023 Z" fill="#000000" fill-rule="nonzero" fill-opacity="1" /><path clip-path="url(#clip230)" d="M95.5787 684.365 L83.7732 702.814 L95.5787 702.814 L95.5787 684.365 M94.3519 680.291 L100.231 680.291 L100.231 702.814 L105.162 702.814 L105.162 706.703 L100.231 706.703 L100.231 714.851 L95.5787 714.851 L95.5787 706.703 L79.9769 706.703 L79.9769 702.189 L94.3519 680.291 Z" fill="#000000" fill-rule="nonzero" fill-opacity="1" /><path clip-path="url(#clip230)" d="M44.0975 566.01 L73.7733 566.01 L73.7733 569.945 L44.0975 569.945 L44.0975 566.01 Z" fill="#000000" fill-rule="nonzero" fill-opacity="1" /><path clip-path="url(#clip230)" d="M98.0324 564.204 Q101.389 564.922 103.264 567.19 Q105.162 569.459 105.162 572.792 Q105.162 577.908 101.643 580.709 Q98.125 583.51 91.6435 583.51 Q89.4676 583.51 87.1528 583.07 Q84.8612 582.653 82.4075 581.797 L82.4075 577.283 Q84.3519 578.417 86.6667 578.996 Q88.9815 579.575 91.5047 579.575 Q95.9028 579.575 98.1944 577.839 Q100.509 576.102 100.509 572.792 Q100.509 569.737 98.3565 568.024 Q96.2268 566.288 92.4074 566.288 L88.3797 566.288 L88.3797 562.445 L92.5926 562.445 Q96.0417 562.445 97.8704 561.079 Q99.6991 559.691 99.6991 557.098 Q99.6991 554.436 97.8009 553.024 Q95.9259 551.589 92.4074 551.589 Q90.4861 551.589 88.2871 552.005 Q86.088 552.422 83.4491 553.302 L83.4491 549.135 Q86.1112 548.394 88.426 548.024 Q90.7639 547.654 92.8241 547.654 Q98.1481 547.654 101.25 550.084 Q104.352 552.491 104.352 556.612 Q104.352 559.482 102.708 561.473 Q101.065 563.441 98.0324 564.204 Z" fill="#000000" fill-rule="nonzero" fill-opacity="1" /><path clip-path="url(#clip230)" d="M45.0466 433.997 L74.7223 433.997 L74.7223 437.932 L45.0466 437.932 L45.0466 433.997 Z" fill="#000000" fill-rule="nonzero" fill-opacity="1" /><path clip-path="url(#clip230)" d="M88.8426 446.891 L105.162 446.891 L105.162 450.826 L83.2177 450.826 L83.2177 446.891 Q85.8797 444.136 90.463 439.507 Q95.0694 434.854 96.25 433.511 Q98.4954 430.988 99.375 429.252 Q100.278 427.493 100.278 425.803 Q100.278 423.048 98.3333 421.312 Q96.412 419.576 93.3102 419.576 Q91.1111 419.576 88.6574 420.34 Q86.2269 421.104 83.4491 422.655 L83.4491 417.933 Q86.2732 416.798 88.7269 416.22 Q91.1806 415.641 93.2176 415.641 Q98.5879 415.641 101.782 418.326 Q104.977 421.011 104.977 425.502 Q104.977 427.632 104.167 429.553 Q103.38 431.451 101.273 434.044 Q100.694 434.715 97.5926 437.932 Q94.4907 441.127 88.8426 446.891 Z" fill="#000000" fill-rule="nonzero" fill-opacity="1" /><path clip-path="url(#clip230)" d="M44.6762 301.985 L74.352 301.985 L74.352 305.92 L44.6762 305.92 L44.6762 301.985 Z" fill="#000000" fill-rule="nonzero" fill-opacity="1" /><path clip-path="url(#clip230)" d="M85.2547 314.878 L92.8935 314.878 L92.8935 288.512 L84.5834 290.179 L84.5834 285.92 L92.8472 284.253 L97.5231 284.253 L97.5231 314.878 L105.162 314.878 L105.162 318.813 L85.2547 318.813 L85.2547 314.878 Z" fill="#000000" fill-rule="nonzero" fill-opacity="1" /><path clip-path="url(#clip230)" d="M93.2176 155.319 Q89.6065 155.319 87.7778 158.884 Q85.9723 162.426 85.9723 169.555 Q85.9723 176.662 87.7778 180.227 Q89.6065 183.768 93.2176 183.768 Q96.8518 183.768 98.6574 180.227 Q100.486 176.662 100.486 169.555 Q100.486 162.426 98.6574 158.884 Q96.8518 155.319 93.2176 155.319 M93.2176 151.616 Q99.0278 151.616 102.083 156.222 Q105.162 160.805 105.162 169.555 Q105.162 178.282 102.083 182.889 Q99.0278 187.472 93.2176 187.472 Q87.4075 187.472 84.3288 182.889 Q81.2732 178.282 81.2732 169.555 Q81.2732 160.805 84.3288 156.222 Q87.4075 151.616 93.2176 151.616 Z" fill="#000000" fill-rule="nonzero" fill-opacity="1" /><path clip-path="url(#clip230)" d="M734.034 18.8205 L734.034 65.8515 L743.918 65.8515 Q756.435 65.8515 762.228 60.1802 Q768.061 54.509 768.061 42.2752 Q768.061 30.1225 762.228 24.4918 Q756.435 18.8205 743.918 18.8205 L734.034 18.8205 M725.851 12.096 L742.662 12.096 Q760.243 12.096 768.466 19.4281 Q776.69 26.7198 776.69 42.2752 Q776.69 57.9117 768.426 65.2439 Q760.162 72.576 742.662 72.576 L725.851 72.576 L725.851 12.096 Z" fill="#000000" fill-rule="nonzero" fill-opacity="1" /><path clip-path="url(#clip230)" d="M828.217 48.0275 L828.217 51.6733 L793.946 51.6733 Q794.433 59.3701 798.564 63.421 Q802.737 67.4314 810.15 67.4314 Q814.444 67.4314 818.454 66.3781 Q822.505 65.3249 826.475 63.2184 L826.475 70.267 Q822.465 71.9684 818.252 72.8596 Q814.039 73.7508 809.704 73.7508 Q798.848 73.7508 792.488 67.4314 Q786.169 61.1119 786.169 50.3365 Q786.169 39.1965 792.164 32.6746 Q798.2 26.1121 808.408 26.1121 Q817.563 26.1121 822.87 32.0264 Q828.217 37.9003 828.217 48.0275 M820.763 45.84 Q820.682 39.7232 817.32 36.0774 Q813.998 32.4315 808.489 32.4315 Q802.251 32.4315 798.483 35.9558 Q794.757 39.4801 794.19 45.8805 L820.763 45.84 Z" fill="#000000" fill-rule="nonzero" fill-opacity="1" /><path clip-path="url(#clip230)" d="M863.419 9.54393 L863.419 15.7418 L856.29 15.7418 Q852.279 15.7418 850.7 17.3622 Q849.16 18.9825 849.16 23.1955 L849.16 27.2059 L861.435 27.2059 L861.435 32.9987 L849.16 32.9987 L849.16 72.576 L841.666 72.576 L841.666 32.9987 L834.537 32.9987 L834.537 27.2059 L841.666 27.2059 L841.666 24.0462 Q841.666 16.471 845.19 13.0277 Q848.715 9.54393 856.371 9.54393 L863.419 9.54393 Z" fill="#000000" fill-rule="nonzero" fill-opacity="1" /><path clip-path="url(#clip230)" d="M869.658 9.54393 L877.112 9.54393 L877.112 72.576 L869.658 72.576 L869.658 9.54393 Z" fill="#000000" fill-rule="nonzero" fill-opacity="1" /><path clip-path="url(#clip230)" d="M931.515 48.0275 L931.515 51.6733 L897.245 51.6733 Q897.731 59.3701 901.863 63.421 Q906.035 67.4314 913.448 67.4314 Q917.742 67.4314 921.752 66.3781 Q925.803 65.3249 929.773 63.2184 L929.773 70.267 Q925.763 71.9684 921.55 72.8596 Q917.337 73.7508 913.003 73.7508 Q902.146 73.7508 895.786 67.4314 Q889.467 61.1119 889.467 50.3365 Q889.467 39.1965 895.462 32.6746 Q901.498 26.1121 911.706 26.1121 Q920.861 26.1121 926.168 32.0264 Q931.515 37.9003 931.515 48.0275 M924.062 45.84 Q923.98 39.7232 920.618 36.0774 Q917.296 32.4315 911.787 32.4315 Q905.549 32.4315 901.782 35.9558 Q898.055 39.4801 897.488 45.8805 L924.062 45.84 Z" fill="#000000" fill-rule="nonzero" fill-opacity="1" /><path clip-path="url(#clip230)" d="M976.399 28.9478 L976.399 35.9153 Q973.239 34.1734 970.039 33.3227 Q966.88 32.4315 963.639 32.4315 Q956.388 32.4315 952.377 37.0496 Q948.367 41.6271 948.367 49.9314 Q948.367 58.2358 952.377 62.8538 Q956.388 67.4314 963.639 67.4314 Q966.88 67.4314 970.039 66.5807 Q973.239 65.6895 976.399 63.9476 L976.399 70.8341 Q973.28 72.2924 969.918 73.0216 Q966.596 73.7508 962.829 73.7508 Q952.58 73.7508 946.544 67.3098 Q940.508 60.8689 940.508 49.9314 Q940.508 38.832 946.585 32.472 Q952.701 26.1121 963.315 26.1121 Q966.758 26.1121 970.039 26.8413 Q973.32 27.5299 976.399 28.9478 Z" fill="#000000" fill-rule="nonzero" fill-opacity="1" /><path clip-path="url(#clip230)" d="M996.735 14.324 L996.735 27.2059 L1012.09 27.2059 L1012.09 32.9987 L996.735 32.9987 L996.735 57.6282 Q996.735 63.1779 998.234 64.7578 Q999.773 66.3376 1004.43 66.3376 L1012.09 66.3376 L1012.09 72.576 L1004.43 72.576 Q995.803 72.576 992.522 69.3758 Q989.241 66.1351 989.241 57.6282 L989.241 32.9987 L983.772 32.9987 L983.772 27.2059 L989.241 27.2059 L989.241 14.324 L996.735 14.324 Z" fill="#000000" fill-rule="nonzero" fill-opacity="1" /><path clip-path="url(#clip230)" d="M1021.89 27.2059 L1029.34 27.2059 L1029.34 72.576 L1021.89 72.576 L1021.89 27.2059 M1021.89 9.54393 L1029.34 9.54393 L1029.34 18.9825 L1021.89 18.9825 L1021.89 9.54393 Z" fill="#000000" fill-rule="nonzero" fill-opacity="1" /><path clip-path="url(#clip230)" d="M1062.52 32.4315 Q1056.53 32.4315 1053.04 37.1306 Q1049.56 41.7891 1049.56 49.9314 Q1049.56 58.0738 1053 62.7728 Q1056.49 67.4314 1062.52 67.4314 Q1068.48 67.4314 1071.96 62.7323 Q1075.44 58.0333 1075.44 49.9314 Q1075.44 41.8701 1071.96 37.1711 Q1068.48 32.4315 1062.52 32.4315 M1062.52 26.1121 Q1072.24 26.1121 1077.79 32.4315 Q1083.34 38.7509 1083.34 49.9314 Q1083.34 61.0714 1077.79 67.4314 Q1072.24 73.7508 1062.52 73.7508 Q1052.76 73.7508 1047.21 67.4314 Q1041.7 61.0714 1041.7 49.9314 Q1041.7 38.7509 1047.21 32.4315 Q1052.76 26.1121 1062.52 26.1121 Z" fill="#000000" fill-rule="nonzero" fill-opacity="1" /><path clip-path="url(#clip230)" d="M1133.41 45.1919 L1133.41 72.576 L1125.96 72.576 L1125.96 45.4349 Q1125.96 38.994 1123.45 35.7938 Q1120.94 32.5936 1115.91 32.5936 Q1109.88 32.5936 1106.39 36.4419 Q1102.91 40.2903 1102.91 46.9338 L1102.91 72.576 L1095.41 72.576 L1095.41 27.2059 L1102.91 27.2059 L1102.91 34.2544 Q1105.58 30.163 1109.19 28.1376 Q1112.83 26.1121 1117.57 26.1121 Q1125.39 26.1121 1129.4 30.9732 Q1133.41 35.7938 1133.41 45.1919 Z" fill="#000000" fill-rule="nonzero" fill-opacity="1" /><path clip-path="url(#clip230)" d="M1173.96 9.54393 L1191.14 9.54393 L1191.14 15.3367 L1181.42 15.3367 L1181.42 77.7206 L1191.14 77.7206 L1191.14 83.5134 L1173.96 83.5134 L1173.96 9.54393 Z" fill="#000000" fill-rule="nonzero" fill-opacity="1" /><path clip-path="url(#clip230)" d="M1242.34 35.9153 Q1245.14 30.8922 1249.03 28.5022 Q1252.91 26.1121 1258.18 26.1121 Q1265.27 26.1121 1269.12 31.0947 Q1272.97 36.0368 1272.97 45.1919 L1272.97 72.576 L1265.47 72.576 L1265.47 45.4349 Q1265.47 38.913 1263.16 35.7533 Q1260.85 32.5936 1256.11 32.5936 Q1250.32 32.5936 1246.96 36.4419 Q1243.6 40.2903 1243.6 46.9338 L1243.6 72.576 L1236.1 72.576 L1236.1 45.4349 Q1236.1 38.8725 1233.79 35.7533 Q1231.48 32.5936 1226.66 32.5936 Q1220.95 32.5936 1217.59 36.4824 Q1214.23 40.3308 1214.23 46.9338 L1214.23 72.576 L1206.73 72.576 L1206.73 27.2059 L1214.23 27.2059 L1214.23 34.2544 Q1216.78 30.082 1220.34 28.0971 Q1223.91 26.1121 1228.81 26.1121 Q1233.75 26.1121 1237.2 28.6237 Q1240.68 31.1352 1242.34 35.9153 Z" fill="#000000" fill-rule="nonzero" fill-opacity="1" /><path clip-path="url(#clip230)" d="M1323.16 35.9153 Q1325.95 30.8922 1329.84 28.5022 Q1333.73 26.1121 1339 26.1121 Q1346.08 26.1121 1349.93 31.0947 Q1353.78 36.0368 1353.78 45.1919 L1353.78 72.576 L1346.29 72.576 L1346.29 45.4349 Q1346.29 38.913 1343.98 35.7533 Q1341.67 32.5936 1336.93 32.5936 Q1331.14 32.5936 1327.77 36.4419 Q1324.41 40.2903 1324.41 46.9338 L1324.41 72.576 L1316.92 72.576 L1316.92 45.4349 Q1316.92 38.8725 1314.61 35.7533 Q1312.3 32.5936 1307.48 32.5936 Q1301.77 32.5936 1298.41 36.4824 Q1295.04 40.3308 1295.04 46.9338 L1295.04 72.576 L1287.55 72.576 L1287.55 27.2059 L1295.04 27.2059 L1295.04 34.2544 Q1297.6 30.082 1301.16 28.0971 Q1304.72 26.1121 1309.63 26.1121 Q1314.57 26.1121 1318.01 28.6237 Q1321.5 31.1352 1323.16 35.9153 Z" fill="#000000" fill-rule="nonzero" fill-opacity="1" /><path clip-path="url(#clip230)" d="M1386.07 9.54393 L1386.07 83.5134 L1368.89 83.5134 L1368.89 77.7206 L1378.57 77.7206 L1378.57 15.3367 L1368.89 15.3367 L1368.89 9.54393 L1386.07 9.54393 Z" fill="#000000" fill-rule="nonzero" fill-opacity="1" /><polyline clip-path="url(#clip232)" style="stroke:#0000ff; stroke-linecap:round; stroke-linejoin:round; stroke-width:12; stroke-opacity:1; fill:none" points="1901.99,696.471 1900.19,695.704 1896.58,694.172 1891.18,691.879 1884,688.829 1875.05,685.028 1864.35,680.485 1851.92,675.21 1837.8,669.213 1822.01,662.509 1804.59,655.111 1785.56,647.035 1764.98,638.301 1742.89,628.928 1719.33,618.938 1694.35,608.354 1668.02,597.202 1640.37,585.512 1611.48,573.312 1581.41,560.637 1550.21,547.522 1517.96,534.004 1484.72,520.126 1450.57,505.93 1415.57,491.463 1379.81,476.774 1343.36,461.914 1306.29,446.937 1268.69,431.899 1230.63,416.856 1192.2,401.868 1153.48,386.993 1114.56,372.291 1075.51,357.822 1036.41,343.643 997.36,329.813 958.433,316.384 919.714,303.409 881.286,290.935 843.231,279.007 805.63,267.664 768.563,256.939 732.109,246.859 696.346,237.448 661.351,228.719 627.198,220.681 593.96,213.336 561.708,206.679 530.51,200.698 500.434,195.375 471.544,190.686 443.9,186.602 417.563,183.088 392.588,180.106 369.029,177.613 346.936,175.566 326.356,173.916 307.332,172.617 289.907,171.622 274.116,170.882 259.994,170.354 247.57,169.995 236.872,169.766 227.921,169.631 220.738,169.561 215.337,169.531 211.73,169.522 209.924,169.521 "/>
<path clip-path="url(#clip230)" d="M159.162 1575.39 L1952.76 1575.39 L1952.76 1016.82 L159.162 1016.82  Z" fill="#ffffff" fill-rule="evenodd" fill-opacity="1"/>
<defs>
  <clipPath id="clip233">
    <rect x="159" y="1016" width="1795" height="560"/>
  </clipPath>
</defs>
<polyline clip-path="url(#clip233)" style="stroke:#000000; stroke-linecap:round; stroke-linejoin:round; stroke-width:2; stroke-opacity:0.1; fill:none" points="209.677,1575.39 209.677,1016.82 "/>
<polyline clip-path="url(#clip233)" style="stroke:#000000; stroke-linecap:round; stroke-linejoin:round; stroke-width:2; stroke-opacity:0.1; fill:none" points="632.818,1575.39 632.818,1016.82 "/>
<polyline clip-path="url(#clip233)" style="stroke:#000000; stroke-linecap:round; stroke-linejoin:round; stroke-width:2; stroke-opacity:0.1; fill:none" points="1055.96,1575.39 1055.96,1016.82 "/>
<polyline clip-path="url(#clip233)" style="stroke:#000000; stroke-linecap:round; stroke-linejoin:round; stroke-width:2; stroke-opacity:0.1; fill:none" points="1479.1,1575.39 1479.1,1016.82 "/>
<polyline clip-path="url(#clip233)" style="stroke:#000000; stroke-linecap:round; stroke-linejoin:round; stroke-width:2; stroke-opacity:0.1; fill:none" points="1902.24,1575.39 1902.24,1016.82 "/>
<polyline clip-path="url(#clip230)" style="stroke:#000000; stroke-linecap:round; stroke-linejoin:round; stroke-width:4; stroke-opacity:1; fill:none" points="159.162,1032.43 1952.76,1032.43 "/>
<polyline clip-path="url(#clip230)" style="stroke:#000000; stroke-linecap:round; stroke-linejoin:round; stroke-width:4; stroke-opacity:0; fill:none" points="209.677,1032.43 209.677,1032.43 "/>
<polyline clip-path="url(#clip230)" style="stroke:#000000; stroke-linecap:round; stroke-linejoin:round; stroke-width:4; stroke-opacity:0; fill:none" points="632.818,1032.43 632.818,1032.43 "/>
<polyline clip-path="url(#clip230)" style="stroke:#000000; stroke-linecap:round; stroke-linejoin:round; stroke-width:4; stroke-opacity:0; fill:none" points="1055.96,1032.43 1055.96,1032.43 "/>
<polyline clip-path="url(#clip230)" style="stroke:#000000; stroke-linecap:round; stroke-linejoin:round; stroke-width:4; stroke-opacity:0; fill:none" points="1479.1,1032.43 1479.1,1032.43 "/>
<polyline clip-path="url(#clip230)" style="stroke:#000000; stroke-linecap:round; stroke-linejoin:round; stroke-width:4; stroke-opacity:0; fill:none" points="1902.24,1032.43 1902.24,1032.43 "/>
<path clip-path="url(#clip230)" d="M187.061 1615.91 Q183.45 1615.91 181.622 1619.47 Q179.816 1623.02 179.816 1630.15 Q179.816 1637.25 181.622 1640.82 Q183.45 1644.36 187.061 1644.36 Q190.696 1644.36 192.501 1640.82 Q194.33 1637.25 194.33 1630.15 Q194.33 1623.02 192.501 1619.47 Q190.696 1615.91 187.061 1615.91 M187.061 1612.21 Q192.872 1612.21 195.927 1616.81 Q199.006 1621.4 199.006 1630.15 Q199.006 1638.87 195.927 1643.48 Q192.872 1648.06 187.061 1648.06 Q181.251 1648.06 178.173 1643.48 Q175.117 1638.87 175.117 1630.15 Q175.117 1621.4 178.173 1616.81 Q181.251 1612.21 187.061 1612.21 Z" fill="#000000" fill-rule="nonzero" fill-opacity="1" /><path clip-path="url(#clip230)" d="M207.223 1641.51 L212.108 1641.51 L212.108 1647.39 L207.223 1647.39 L207.223 1641.51 Z" fill="#000000" fill-rule="nonzero" fill-opacity="1" /><path clip-path="url(#clip230)" d="M232.293 1615.91 Q228.682 1615.91 226.853 1619.47 Q225.047 1623.02 225.047 1630.15 Q225.047 1637.25 226.853 1640.82 Q228.682 1644.36 232.293 1644.36 Q235.927 1644.36 237.732 1640.82 Q239.561 1637.25 239.561 1630.15 Q239.561 1623.02 237.732 1619.47 Q235.927 1615.91 232.293 1615.91 M232.293 1612.21 Q238.103 1612.21 241.158 1616.81 Q244.237 1621.4 244.237 1630.15 Q244.237 1638.87 241.158 1643.48 Q238.103 1648.06 232.293 1648.06 Q226.482 1648.06 223.404 1643.48 Q220.348 1638.87 220.348 1630.15 Q220.348 1621.4 223.404 1616.81 Q226.482 1612.21 232.293 1612.21 Z" fill="#000000" fill-rule="nonzero" fill-opacity="1" /><path clip-path="url(#clip230)" d="M610.7 1615.91 Q607.089 1615.91 605.26 1619.47 Q603.455 1623.02 603.455 1630.15 Q603.455 1637.25 605.26 1640.82 Q607.089 1644.36 610.7 1644.36 Q614.334 1644.36 616.14 1640.82 Q617.969 1637.25 617.969 1630.15 Q617.969 1623.02 616.14 1619.47 Q614.334 1615.91 610.7 1615.91 M610.7 1612.21 Q616.51 1612.21 619.566 1616.81 Q622.644 1621.4 622.644 1630.15 Q622.644 1638.87 619.566 1643.48 Q616.51 1648.06 610.7 1648.06 Q604.89 1648.06 601.811 1643.48 Q598.756 1638.87 598.756 1630.15 Q598.756 1621.4 601.811 1616.81 Q604.89 1612.21 610.7 1612.21 Z" fill="#000000" fill-rule="nonzero" fill-opacity="1" /><path clip-path="url(#clip230)" d="M630.862 1641.51 L635.746 1641.51 L635.746 1647.39 L630.862 1647.39 L630.862 1641.51 Z" fill="#000000" fill-rule="nonzero" fill-opacity="1" /><path clip-path="url(#clip230)" d="M645.978 1612.83 L664.334 1612.83 L664.334 1616.77 L650.26 1616.77 L650.26 1625.24 Q651.279 1624.89 652.297 1624.73 Q653.316 1624.54 654.334 1624.54 Q660.121 1624.54 663.501 1627.71 Q666.88 1630.89 666.88 1636.3 Q666.88 1641.88 663.408 1644.98 Q659.936 1648.06 653.616 1648.06 Q651.441 1648.06 649.172 1647.69 Q646.927 1647.32 644.519 1646.58 L644.519 1641.88 Q646.603 1643.02 648.825 1643.57 Q651.047 1644.13 653.524 1644.13 Q657.528 1644.13 659.866 1642.02 Q662.204 1639.91 662.204 1636.3 Q662.204 1632.69 659.866 1630.59 Q657.528 1628.48 653.524 1628.48 Q651.649 1628.48 649.774 1628.9 Q647.922 1629.31 645.978 1630.19 L645.978 1612.83 Z" fill="#000000" fill-rule="nonzero" fill-opacity="1" /><path clip-path="url(#clip230)" d="M1023.11 1643.46 L1030.75 1643.46 L1030.75 1617.09 L1022.44 1618.76 L1022.44 1614.5 L1030.7 1612.83 L1035.38 1612.83 L1035.38 1643.46 L1043.02 1643.46 L1043.02 1647.39 L1023.11 1647.39 L1023.11 1643.46 Z" fill="#000000" fill-rule="nonzero" fill-opacity="1" /><path clip-path="url(#clip230)" d="M1052.46 1641.51 L1057.35 1641.51 L1057.35 1647.39 L1052.46 1647.39 L1052.46 1641.51 Z" fill="#000000" fill-rule="nonzero" fill-opacity="1" /><path clip-path="url(#clip230)" d="M1077.53 1615.91 Q1073.92 1615.91 1072.09 1619.47 Q1070.29 1623.02 1070.29 1630.15 Q1070.29 1637.25 1072.09 1640.82 Q1073.92 1644.36 1077.53 1644.36 Q1081.17 1644.36 1082.97 1640.82 Q1084.8 1637.25 1084.8 1630.15 Q1084.8 1623.02 1082.97 1619.47 Q1081.17 1615.91 1077.53 1615.91 M1077.53 1612.21 Q1083.34 1612.21 1086.4 1616.81 Q1089.48 1621.4 1089.48 1630.15 Q1089.48 1638.87 1086.4 1643.48 Q1083.34 1648.06 1077.53 1648.06 Q1071.72 1648.06 1068.64 1643.48 Q1065.59 1638.87 1065.59 1630.15 Q1065.59 1621.4 1068.64 1616.81 Q1071.72 1612.21 1077.53 1612.21 Z" fill="#000000" fill-rule="nonzero" fill-opacity="1" /><path clip-path="url(#clip230)" d="M1446.75 1643.46 L1454.39 1643.46 L1454.39 1617.09 L1446.08 1618.76 L1446.08 1614.5 L1454.34 1612.83 L1459.02 1612.83 L1459.02 1643.46 L1466.66 1643.46 L1466.66 1647.39 L1446.75 1647.39 L1446.75 1643.46 Z" fill="#000000" fill-rule="nonzero" fill-opacity="1" /><path clip-path="url(#clip230)" d="M1476.1 1641.51 L1480.99 1641.51 L1480.99 1647.39 L1476.1 1647.39 L1476.1 1641.51 Z" fill="#000000" fill-rule="nonzero" fill-opacity="1" /><path clip-path="url(#clip230)" d="M1491.22 1612.83 L1509.57 1612.83 L1509.57 1616.77 L1495.5 1616.77 L1495.5 1625.24 Q1496.52 1624.89 1497.54 1624.73 Q1498.56 1624.54 1499.57 1624.54 Q1505.36 1624.54 1508.74 1627.71 Q1512.12 1630.89 1512.12 1636.3 Q1512.12 1641.88 1508.65 1644.98 Q1505.18 1648.06 1498.86 1648.06 Q1496.68 1648.06 1494.41 1647.69 Q1492.17 1647.32 1489.76 1646.58 L1489.76 1641.88 Q1491.84 1643.02 1494.07 1643.57 Q1496.29 1644.13 1498.76 1644.13 Q1502.77 1644.13 1505.11 1642.02 Q1507.44 1639.91 1507.44 1636.3 Q1507.44 1632.69 1505.11 1630.59 Q1502.77 1628.48 1498.76 1628.48 Q1496.89 1628.48 1495.01 1628.9 Q1493.16 1629.31 1491.22 1630.19 L1491.22 1612.83 Z" fill="#000000" fill-rule="nonzero" fill-opacity="1" /><path clip-path="url(#clip230)" d="M1873.48 1643.46 L1889.8 1643.46 L1889.8 1647.39 L1867.85 1647.39 L1867.85 1643.46 Q1870.52 1640.7 1875.1 1636.07 Q1879.71 1631.42 1880.89 1630.08 Q1883.13 1627.55 1884.01 1625.82 Q1884.91 1624.06 1884.91 1622.37 Q1884.91 1619.61 1882.97 1617.88 Q1881.05 1616.14 1877.95 1616.14 Q1875.75 1616.14 1873.29 1616.9 Q1870.86 1617.67 1868.09 1619.22 L1868.09 1614.5 Q1870.91 1613.36 1873.36 1612.78 Q1875.82 1612.21 1877.85 1612.21 Q1883.22 1612.21 1886.42 1614.89 Q1889.61 1617.58 1889.61 1622.07 Q1889.61 1624.2 1888.8 1626.12 Q1888.02 1628.02 1885.91 1630.61 Q1885.33 1631.28 1882.23 1634.5 Q1879.13 1637.69 1873.48 1643.46 Z" fill="#000000" fill-rule="nonzero" fill-opacity="1" /><path clip-path="url(#clip230)" d="M1899.61 1641.51 L1904.5 1641.51 L1904.5 1647.39 L1899.61 1647.39 L1899.61 1641.51 Z" fill="#000000" fill-rule="nonzero" fill-opacity="1" /><path clip-path="url(#clip230)" d="M1924.68 1615.91 Q1921.07 1615.91 1919.24 1619.47 Q1917.44 1623.02 1917.44 1630.15 Q1917.44 1637.25 1919.24 1640.82 Q1921.07 1644.36 1924.68 1644.36 Q1928.32 1644.36 1930.12 1640.82 Q1931.95 1637.25 1931.95 1630.15 Q1931.95 1623.02 1930.12 1619.47 Q1928.32 1615.91 1924.68 1615.91 M1924.68 1612.21 Q1930.49 1612.21 1933.55 1616.81 Q1936.63 1621.4 1936.63 1630.15 Q1936.63 1638.87 1933.55 1643.48 Q1930.49 1648.06 1924.68 1648.06 Q1918.87 1648.06 1915.79 1643.48 Q1912.74 1638.87 1912.74 1630.15 Q1912.74 1621.4 1915.79 1616.81 Q1918.87 1612.21 1924.68 1612.21 Z" fill="#000000" fill-rule="nonzero" fill-opacity="1" /><polyline clip-path="url(#clip233)" style="stroke:#000000; stroke-linecap:round; stroke-linejoin:round; stroke-width:2; stroke-opacity:0.1; fill:none" points="159.162,1539.42 1952.76,1539.42 "/>
<polyline clip-path="url(#clip233)" style="stroke:#000000; stroke-linecap:round; stroke-linejoin:round; stroke-width:2; stroke-opacity:0.1; fill:none" points="159.162,1370.42 1952.76,1370.42 "/>
<polyline clip-path="url(#clip233)" style="stroke:#000000; stroke-linecap:round; stroke-linejoin:round; stroke-width:2; stroke-opacity:0.1; fill:none" points="159.162,1201.43 1952.76,1201.43 "/>
<polyline clip-path="url(#clip233)" style="stroke:#000000; stroke-linecap:round; stroke-linejoin:round; stroke-width:2; stroke-opacity:0.1; fill:none" points="159.162,1032.43 1952.76,1032.43 "/>
<polyline clip-path="url(#clip230)" style="stroke:#000000; stroke-linecap:round; stroke-linejoin:round; stroke-width:4; stroke-opacity:1; fill:none" points="209.677,1575.39 209.677,1016.82 "/>
<polyline clip-path="url(#clip230)" style="stroke:#000000; stroke-linecap:round; stroke-linejoin:round; stroke-width:4; stroke-opacity:0; fill:none" points="209.677,1539.42 209.677,1539.42 "/>
<polyline clip-path="url(#clip230)" style="stroke:#000000; stroke-linecap:round; stroke-linejoin:round; stroke-width:4; stroke-opacity:0; fill:none" points="209.677,1370.42 209.677,1370.42 "/>
<polyline clip-path="url(#clip230)" style="stroke:#000000; stroke-linecap:round; stroke-linejoin:round; stroke-width:4; stroke-opacity:0; fill:none" points="209.677,1201.43 209.677,1201.43 "/>
<polyline clip-path="url(#clip230)" style="stroke:#000000; stroke-linecap:round; stroke-linejoin:round; stroke-width:4; stroke-opacity:0; fill:none" points="209.677,1032.43 209.677,1032.43 "/>
<path clip-path="url(#clip230)" d="M-30.9484 1539.88 L-1.27263 1539.88 L-1.27263 1543.81 L-30.9484 1543.81 L-30.9484 1539.88 Z" fill="#000000" fill-rule="nonzero" fill-opacity="1" /><path clip-path="url(#clip230)" d="M18.8199 1525.22 Q15.2088 1525.22 13.3801 1528.79 Q11.5745 1532.33 11.5745 1539.46 Q11.5745 1546.57 13.3801 1550.13 Q15.2088 1553.67 18.8199 1553.67 Q22.4541 1553.67 24.2596 1550.13 Q26.0883 1546.57 26.0883 1539.46 Q26.0883 1532.33 24.2596 1528.79 Q22.4541 1525.22 18.8199 1525.22 M18.8199 1521.52 Q24.63 1521.52 27.6855 1526.13 Q30.7642 1530.71 30.7642 1539.46 Q30.7642 1548.19 27.6855 1552.79 Q24.63 1557.38 18.8199 1557.38 Q13.0097 1557.38 9.93101 1552.79 Q6.87547 1548.19 6.87547 1539.46 Q6.87547 1530.71 9.93101 1526.13 Q13.0097 1521.52 18.8199 1521.52 Z" fill="#000000" fill-rule="nonzero" fill-opacity="1" /><path clip-path="url(#clip230)" d="M38.9818 1550.82 L43.866 1550.82 L43.866 1556.7 L38.9818 1556.7 L38.9818 1550.82 Z" fill="#000000" fill-rule="nonzero" fill-opacity="1" /><path clip-path="url(#clip230)" d="M54.8613 1552.77 L62.5002 1552.77 L62.5002 1526.4 L54.19 1528.07 L54.19 1523.81 L62.4539 1522.14 L67.1298 1522.14 L67.1298 1552.77 L74.7686 1552.77 L74.7686 1556.7 L54.8613 1556.7 L54.8613 1552.77 Z" fill="#000000" fill-rule="nonzero" fill-opacity="1" /><path clip-path="url(#clip230)" d="M84.2593 1522.14 L102.616 1522.14 L102.616 1526.08 L88.5417 1526.08 L88.5417 1534.55 Q89.5602 1534.2 90.5787 1534.04 Q91.5972 1533.86 92.6158 1533.86 Q98.4028 1533.86 101.782 1537.03 Q105.162 1540.2 105.162 1545.62 Q105.162 1551.19 101.69 1554.3 Q98.2176 1557.38 91.8982 1557.38 Q89.7223 1557.38 87.4537 1557 Q85.2084 1556.63 82.801 1555.89 L82.801 1551.19 Q84.8843 1552.33 87.1065 1552.88 Q89.3287 1553.44 91.8056 1553.44 Q95.8102 1553.44 98.1481 1551.33 Q100.486 1549.23 100.486 1545.62 Q100.486 1542.01 98.1481 1539.9 Q95.8102 1537.79 91.8056 1537.79 Q89.9306 1537.79 88.0556 1538.21 Q86.2038 1538.63 84.2593 1539.51 L84.2593 1522.14 Z" fill="#000000" fill-rule="nonzero" fill-opacity="1" /><path clip-path="url(#clip230)" d="M-31.9438 1370.88 L-2.26799 1370.88 L-2.26799 1374.81 L-31.9438 1374.81 L-31.9438 1370.88 Z" fill="#000000" fill-rule="nonzero" fill-opacity="1" /><path clip-path="url(#clip230)" d="M17.8245 1356.22 Q14.2134 1356.22 12.3847 1359.79 Q10.5792 1363.33 10.5792 1370.46 Q10.5792 1377.57 12.3847 1381.13 Q14.2134 1384.67 17.8245 1384.67 Q21.4587 1384.67 23.2643 1381.13 Q25.093 1377.57 25.093 1370.46 Q25.093 1363.33 23.2643 1359.79 Q21.4587 1356.22 17.8245 1356.22 M17.8245 1352.52 Q23.6346 1352.52 26.6902 1357.13 Q29.7689 1361.71 29.7689 1370.46 Q29.7689 1379.19 26.6902 1383.79 Q23.6346 1388.38 17.8245 1388.38 Q12.0143 1388.38 8.93565 1383.79 Q5.88011 1379.19 5.88011 1370.46 Q5.88011 1361.71 8.93565 1357.13 Q12.0143 1352.52 17.8245 1352.52 Z" fill="#000000" fill-rule="nonzero" fill-opacity="1" /><path clip-path="url(#clip230)" d="M37.9864 1381.83 L42.8707 1381.83 L42.8707 1387.7 L37.9864 1387.7 L37.9864 1381.83 Z" fill="#000000" fill-rule="nonzero" fill-opacity="1" /><path clip-path="url(#clip230)" d="M53.866 1383.77 L61.5048 1383.77 L61.5048 1357.4 L53.1947 1359.07 L53.1947 1354.81 L61.4585 1353.14 L66.1344 1353.14 L66.1344 1383.77 L73.7733 1383.77 L73.7733 1387.7 L53.866 1387.7 L53.866 1383.77 Z" fill="#000000" fill-rule="nonzero" fill-opacity="1" /><path clip-path="url(#clip230)" d="M93.2176 1356.22 Q89.6065 1356.22 87.7778 1359.79 Q85.9723 1363.33 85.9723 1370.46 Q85.9723 1377.57 87.7778 1381.13 Q89.6065 1384.67 93.2176 1384.67 Q96.8518 1384.67 98.6574 1381.13 Q100.486 1377.57 100.486 1370.46 Q100.486 1363.33 98.6574 1359.79 Q96.8518 1356.22 93.2176 1356.22 M93.2176 1352.52 Q99.0278 1352.52 102.083 1357.13 Q105.162 1361.71 105.162 1370.46 Q105.162 1379.19 102.083 1383.79 Q99.0278 1388.38 93.2176 1388.38 Q87.4075 1388.38 84.3288 1383.79 Q81.2732 1379.19 81.2732 1370.46 Q81.2732 1361.71 84.3288 1357.13 Q87.4075 1352.52 93.2176 1352.52 Z" fill="#000000" fill-rule="nonzero" fill-opacity="1" /><path clip-path="url(#clip230)" d="M-30.9484 1201.88 L-1.27263 1201.88 L-1.27263 1205.81 L-30.9484 1205.81 L-30.9484 1201.88 Z" fill="#000000" fill-rule="nonzero" fill-opacity="1" /><path clip-path="url(#clip230)" d="M18.8199 1187.22 Q15.2088 1187.22 13.3801 1190.79 Q11.5745 1194.33 11.5745 1201.46 Q11.5745 1208.57 13.3801 1212.13 Q15.2088 1215.67 18.8199 1215.67 Q22.4541 1215.67 24.2596 1212.13 Q26.0883 1208.57 26.0883 1201.46 Q26.0883 1194.33 24.2596 1190.79 Q22.4541 1187.22 18.8199 1187.22 M18.8199 1183.52 Q24.63 1183.52 27.6855 1188.13 Q30.7642 1192.71 30.7642 1201.46 Q30.7642 1210.19 27.6855 1214.79 Q24.63 1219.38 18.8199 1219.38 Q13.0097 1219.38 9.93101 1214.79 Q6.87547 1210.19 6.87547 1201.46 Q6.87547 1192.71 9.93101 1188.13 Q13.0097 1183.52 18.8199 1183.52 Z" fill="#000000" fill-rule="nonzero" fill-opacity="1" /><path clip-path="url(#clip230)" d="M38.9818 1212.83 L43.866 1212.83 L43.866 1218.71 L38.9818 1218.71 L38.9818 1212.83 Z" fill="#000000" fill-rule="nonzero" fill-opacity="1" /><path clip-path="url(#clip230)" d="M64.0511 1187.22 Q60.44 1187.22 58.6113 1190.79 Q56.8058 1194.33 56.8058 1201.46 Q56.8058 1208.57 58.6113 1212.13 Q60.44 1215.67 64.0511 1215.67 Q67.6853 1215.67 69.4909 1212.13 Q71.3196 1208.57 71.3196 1201.46 Q71.3196 1194.33 69.4909 1190.79 Q67.6853 1187.22 64.0511 1187.22 M64.0511 1183.52 Q69.8612 1183.52 72.9168 1188.13 Q75.9955 1192.71 75.9955 1201.46 Q75.9955 1210.19 72.9168 1214.79 Q69.8612 1219.38 64.0511 1219.38 Q58.2409 1219.38 55.1623 1214.79 Q52.1067 1210.19 52.1067 1201.46 Q52.1067 1192.71 55.1623 1188.13 Q58.2409 1183.52 64.0511 1183.52 Z" fill="#000000" fill-rule="nonzero" fill-opacity="1" /><path clip-path="url(#clip230)" d="M84.2593 1184.15 L102.616 1184.15 L102.616 1188.08 L88.5417 1188.08 L88.5417 1196.55 Q89.5602 1196.21 90.5787 1196.04 Q91.5972 1195.86 92.6158 1195.86 Q98.4028 1195.86 101.782 1199.03 Q105.162 1202.2 105.162 1207.62 Q105.162 1213.2 101.69 1216.3 Q98.2176 1219.38 91.8982 1219.38 Q89.7223 1219.38 87.4537 1219.01 Q85.2084 1218.64 82.801 1217.9 L82.801 1213.2 Q84.8843 1214.33 87.1065 1214.89 Q89.3287 1215.44 91.8056 1215.44 Q95.8102 1215.44 98.1481 1213.34 Q100.486 1211.23 100.486 1207.62 Q100.486 1204.01 98.1481 1201.9 Q95.8102 1199.79 91.8056 1199.79 Q89.9306 1199.79 88.0556 1200.21 Q86.2038 1200.63 84.2593 1201.51 L84.2593 1184.15 Z" fill="#000000" fill-rule="nonzero" fill-opacity="1" /><path clip-path="url(#clip230)" d="M17.8245 1018.23 Q14.2134 1018.23 12.3847 1021.79 Q10.5792 1025.33 10.5792 1032.46 Q10.5792 1039.57 12.3847 1043.13 Q14.2134 1046.67 17.8245 1046.67 Q21.4587 1046.67 23.2643 1043.13 Q25.093 1039.57 25.093 1032.46 Q25.093 1025.33 23.2643 1021.79 Q21.4587 1018.23 17.8245 1018.23 M17.8245 1014.52 Q23.6346 1014.52 26.6902 1019.13 Q29.7689 1023.71 29.7689 1032.46 Q29.7689 1041.19 26.6902 1045.79 Q23.6346 1050.38 17.8245 1050.38 Q12.0143 1050.38 8.93565 1045.79 Q5.88011 1041.19 5.88011 1032.46 Q5.88011 1023.71 8.93565 1019.13 Q12.0143 1014.52 17.8245 1014.52 Z" fill="#000000" fill-rule="nonzero" fill-opacity="1" /><path clip-path="url(#clip230)" d="M37.9864 1043.83 L42.8707 1043.83 L42.8707 1049.71 L37.9864 1049.71 L37.9864 1043.83 Z" fill="#000000" fill-rule="nonzero" fill-opacity="1" /><path clip-path="url(#clip230)" d="M63.0557 1018.23 Q59.4446 1018.23 57.6159 1021.79 Q55.8104 1025.33 55.8104 1032.46 Q55.8104 1039.57 57.6159 1043.13 Q59.4446 1046.67 63.0557 1046.67 Q66.69 1046.67 68.4955 1043.13 Q70.3242 1039.57 70.3242 1032.46 Q70.3242 1025.33 68.4955 1021.79 Q66.69 1018.23 63.0557 1018.23 M63.0557 1014.52 Q68.8659 1014.52 71.9214 1019.13 Q75.0001 1023.71 75.0001 1032.46 Q75.0001 1041.19 71.9214 1045.79 Q68.8659 1050.38 63.0557 1050.38 Q57.2456 1050.38 54.1669 1045.79 Q51.1113 1041.19 51.1113 1032.46 Q51.1113 1023.71 54.1669 1019.13 Q57.2456 1014.52 63.0557 1014.52 Z" fill="#000000" fill-rule="nonzero" fill-opacity="1" /><path clip-path="url(#clip230)" d="M93.2176 1018.23 Q89.6065 1018.23 87.7778 1021.79 Q85.9723 1025.33 85.9723 1032.46 Q85.9723 1039.57 87.7778 1043.13 Q89.6065 1046.67 93.2176 1046.67 Q96.8518 1046.67 98.6574 1043.13 Q100.486 1039.57 100.486 1032.46 Q100.486 1025.33 98.6574 1021.79 Q96.8518 1018.23 93.2176 1018.23 M93.2176 1014.52 Q99.0278 1014.52 102.083 1019.13 Q105.162 1023.71 105.162 1032.46 Q105.162 1041.19 102.083 1045.79 Q99.0278 1050.38 93.2176 1050.38 Q87.4075 1050.38 84.3288 1045.79 Q81.2732 1041.19 81.2732 1032.46 Q81.2732 1023.71 84.3288 1019.13 Q87.4075 1014.52 93.2176 1014.52 Z" fill="#000000" fill-rule="nonzero" fill-opacity="1" /><path clip-path="url(#clip230)" d="M903.22 883.269 L892.12 913.367 L914.36 913.367 L903.22 883.269 M898.602 875.207 L907.878 875.207 L930.928 935.687 L922.421 935.687 L916.912 920.172 L889.649 920.172 L884.14 935.687 L875.511 935.687 L898.602 875.207 Z" fill="#000000" fill-rule="nonzero" fill-opacity="1" /><path clip-path="url(#clip230)" d="M977.149 908.303 L977.149 935.687 L969.695 935.687 L969.695 908.546 Q969.695 902.105 967.183 898.905 Q964.672 895.705 959.649 895.705 Q953.613 895.705 950.129 899.553 Q946.645 903.402 946.645 910.045 L946.645 935.687 L939.151 935.687 L939.151 890.317 L946.645 890.317 L946.645 897.366 Q949.319 893.274 952.924 891.249 Q956.57 889.223 961.31 889.223 Q969.128 889.223 973.138 894.085 Q977.149 898.905 977.149 908.303 Z" fill="#000000" fill-rule="nonzero" fill-opacity="1" /><path clip-path="url(#clip230)" d="M1021.87 912.476 Q1021.87 904.374 1018.51 899.918 Q1015.19 895.462 1009.15 895.462 Q1003.16 895.462 999.793 899.918 Q996.471 904.374 996.471 912.476 Q996.471 920.537 999.793 924.993 Q1003.16 929.449 1009.15 929.449 Q1015.19 929.449 1018.51 924.993 Q1021.87 920.537 1021.87 912.476 M1029.32 930.057 Q1029.32 941.642 1024.18 947.273 Q1019.03 952.944 1008.42 952.944 Q1004.49 952.944 1001.01 952.337 Q997.525 951.769 994.243 950.554 L994.243 943.303 Q997.525 945.085 1000.72 945.936 Q1003.93 946.787 1007.25 946.787 Q1014.58 946.787 1018.22 942.938 Q1021.87 939.131 1021.87 931.393 L1021.87 927.707 Q1019.56 931.717 1015.96 933.702 Q1012.35 935.687 1007.33 935.687 Q998.983 935.687 993.879 929.327 Q988.775 922.967 988.775 912.476 Q988.775 901.943 993.879 895.583 Q998.983 889.223 1007.33 889.223 Q1012.35 889.223 1015.96 891.208 Q1019.56 893.193 1021.87 897.204 L1021.87 890.317 L1029.32 890.317 L1029.32 930.057 Z" fill="#000000" fill-rule="nonzero" fill-opacity="1" /><path clip-path="url(#clip230)" d="M1044.68 872.655 L1052.13 872.655 L1052.13 935.687 L1044.68 935.687 L1044.68 872.655 Z" fill="#000000" fill-rule="nonzero" fill-opacity="1" /><path clip-path="url(#clip230)" d="M1106.53 911.139 L1106.53 914.785 L1072.26 914.785 Q1072.75 922.481 1076.88 926.532 Q1081.05 930.543 1088.47 930.543 Q1092.76 930.543 1096.77 929.489 Q1100.82 928.436 1104.79 926.33 L1104.79 933.378 Q1100.78 935.08 1096.57 935.971 Q1092.36 936.862 1088.02 936.862 Q1077.17 936.862 1070.81 930.543 Q1064.49 924.223 1064.49 913.448 Q1064.49 902.308 1070.48 895.786 Q1076.52 889.223 1086.73 889.223 Q1095.88 889.223 1101.19 895.138 Q1106.53 901.012 1106.53 911.139 M1099.08 908.951 Q1099 902.834 1095.64 899.189 Q1092.32 895.543 1086.81 895.543 Q1080.57 895.543 1076.8 899.067 Q1073.07 902.591 1072.51 908.992 L1099.08 908.951 Z" fill="#000000" fill-rule="nonzero" fill-opacity="1" /><path clip-path="url(#clip230)" d="M1144.45 872.655 L1161.63 872.655 L1161.63 878.448 L1151.9 878.448 L1151.9 940.832 L1161.63 940.832 L1161.63 946.625 L1144.45 946.625 L1144.45 872.655 Z" fill="#000000" fill-rule="nonzero" fill-opacity="1" /><path clip-path="url(#clip230)" d="M1190.43 879.339 Q1187.19 879.339 1184.96 881.608 Q1182.73 883.836 1182.73 887.076 Q1182.73 890.277 1184.96 892.505 Q1187.19 894.692 1190.43 894.692 Q1193.67 894.692 1195.9 892.505 Q1198.13 890.277 1198.13 887.076 Q1198.13 883.876 1195.86 881.608 Q1193.63 879.339 1190.43 879.339 M1190.43 874.114 Q1193.02 874.114 1195.41 875.126 Q1197.8 876.099 1199.54 877.962 Q1201.41 879.785 1202.34 882.094 Q1203.27 884.403 1203.27 887.076 Q1203.27 892.424 1199.5 896.15 Q1195.78 899.837 1190.35 899.837 Q1184.88 899.837 1181.23 896.191 Q1177.59 892.545 1177.59 887.076 Q1177.59 881.648 1181.31 877.881 Q1185.04 874.114 1190.43 874.114 Z" fill="#000000" fill-rule="nonzero" fill-opacity="1" /><path clip-path="url(#clip230)" d="M1236.41 872.655 L1236.41 946.625 L1219.23 946.625 L1219.23 940.832 L1228.91 940.832 L1228.91 878.448 L1219.23 878.448 L1219.23 872.655 L1236.41 872.655 Z" fill="#000000" fill-rule="nonzero" fill-opacity="1" /><polyline clip-path="url(#clip233)" style="stroke:#ffa500; stroke-linecap:round; stroke-linejoin:round; stroke-width:12; stroke-opacity:1; fill:none" points="1901.99,1559.58 1900.02,1559.58 1896.07,1559.58 1890.16,1559.58 1882.3,1559.58 1872.52,1559.58 1860.82,1559.57 1847.25,1559.56 1831.82,1559.53 1814.59,1559.49 1795.58,1559.41 1774.85,1559.29 1752.44,1559.11 1728.4,1558.84 1702.79,1558.47 1675.66,1557.95 1647.1,1557.27 1617.15,1556.36 1585.89,1555.21 1553.39,1553.75 1519.73,1551.93 1484.99,1549.7 1449.25,1547.01 1412.58,1543.79 1375.09,1540 1336.85,1535.57 1297.95,1530.45 1258.49,1524.59 1218.55,1517.93 1178.24,1510.45 1137.64,1502.1 1096.85,1492.86 1055.96,1482.71 1015.07,1471.63 974.281,1459.63 933.68,1446.71 893.366,1432.91 853.43,1418.25 813.968,1402.78 775.071,1386.55 736.83,1369.63 699.335,1352.1 662.672,1334.04 626.928,1315.55 592.186,1296.73 558.527,1277.69 526.03,1258.55 494.77,1239.44 464.821,1220.47 436.253,1201.77 409.132,1183.48 383.522,1165.71 359.483,1148.6 337.07,1132.26 316.336,1116.83 297.329,1102.4 280.094,1089.09 264.672,1076.99 251.097,1066.2 239.402,1056.79 229.614,1048.84 221.757,1042.41 215.847,1037.54 211.9,1034.27 209.924,1032.63 "/>
<path clip-path="url(#clip230)" d="M159.162 3449.17 L1952.76 3449.17 L1952.76 1773.47 L159.162 1773.47  Z" fill="#ffffff" fill-rule="evenodd" fill-opacity="1"/>
<defs>
  <clipPath id="clip234">
    <rect x="159" y="1773" width="1795" height="1677"/>
  </clipPath>
</defs>
<polyline clip-path="url(#clip234)" style="stroke:#000000; stroke-linecap:round; stroke-linejoin:round; stroke-width:2; stroke-opacity:0.1; fill:none" points="209.652,3449.17 209.652,1773.47 "/>
<polyline clip-path="url(#clip234)" style="stroke:#000000; stroke-linecap:round; stroke-linejoin:round; stroke-width:2; stroke-opacity:0.1; fill:none" points="632.806,3449.17 632.806,1773.47 "/>
<polyline clip-path="url(#clip234)" style="stroke:#000000; stroke-linecap:round; stroke-linejoin:round; stroke-width:2; stroke-opacity:0.1; fill:none" points="1055.96,3449.17 1055.96,1773.47 "/>
<polyline clip-path="url(#clip234)" style="stroke:#000000; stroke-linecap:round; stroke-linejoin:round; stroke-width:2; stroke-opacity:0.1; fill:none" points="1479.11,3449.17 1479.11,1773.47 "/>
<polyline clip-path="url(#clip234)" style="stroke:#000000; stroke-linecap:round; stroke-linejoin:round; stroke-width:2; stroke-opacity:0.1; fill:none" points="1902.27,3449.17 1902.27,1773.47 "/>
<polyline clip-path="url(#clip230)" style="stroke:#000000; stroke-linecap:round; stroke-linejoin:round; stroke-width:4; stroke-opacity:1; fill:none" points="159.162,2498.49 1952.76,2498.49 "/>
<polyline clip-path="url(#clip230)" style="stroke:#000000; stroke-linecap:round; stroke-linejoin:round; stroke-width:4; stroke-opacity:0; fill:none" points="209.652,2498.49 209.652,2498.49 "/>
<polyline clip-path="url(#clip230)" style="stroke:#000000; stroke-linecap:round; stroke-linejoin:round; stroke-width:4; stroke-opacity:0; fill:none" points="632.806,2498.49 632.806,2498.49 "/>
<polyline clip-path="url(#clip230)" style="stroke:#000000; stroke-linecap:round; stroke-linejoin:round; stroke-width:4; stroke-opacity:0; fill:none" points="1055.96,2498.49 1055.96,2498.49 "/>
<polyline clip-path="url(#clip230)" style="stroke:#000000; stroke-linecap:round; stroke-linejoin:round; stroke-width:4; stroke-opacity:0; fill:none" points="1479.11,2498.49 1479.11,2498.49 "/>
<polyline clip-path="url(#clip230)" style="stroke:#000000; stroke-linecap:round; stroke-linejoin:round; stroke-width:4; stroke-opacity:0; fill:none" points="1902.27,2498.49 1902.27,2498.49 "/>
<path clip-path="url(#clip230)" d="M187.037 3489.69 Q183.426 3489.69 181.597 3493.25 Q179.792 3496.79 179.792 3503.92 Q179.792 3511.03 181.597 3514.59 Q183.426 3518.14 187.037 3518.14 Q190.671 3518.14 192.477 3514.59 Q194.305 3511.03 194.305 3503.92 Q194.305 3496.79 192.477 3493.25 Q190.671 3489.69 187.037 3489.69 M187.037 3485.98 Q192.847 3485.98 195.903 3490.59 Q198.981 3495.17 198.981 3503.92 Q198.981 3512.65 195.903 3517.26 Q192.847 3521.84 187.037 3521.84 Q181.227 3521.84 178.148 3517.26 Q175.092 3512.65 175.092 3503.92 Q175.092 3495.17 178.148 3490.59 Q181.227 3485.98 187.037 3485.98 Z" fill="#000000" fill-rule="nonzero" fill-opacity="1" /><path clip-path="url(#clip230)" d="M207.199 3515.29 L212.083 3515.29 L212.083 3521.17 L207.199 3521.17 L207.199 3515.29 Z" fill="#000000" fill-rule="nonzero" fill-opacity="1" /><path clip-path="url(#clip230)" d="M232.268 3489.69 Q228.657 3489.69 226.828 3493.25 Q225.023 3496.79 225.023 3503.92 Q225.023 3511.03 226.828 3514.59 Q228.657 3518.14 232.268 3518.14 Q235.902 3518.14 237.708 3514.59 Q239.537 3511.03 239.537 3503.92 Q239.537 3496.79 237.708 3493.25 Q235.902 3489.69 232.268 3489.69 M232.268 3485.98 Q238.078 3485.98 241.134 3490.59 Q244.212 3495.17 244.212 3503.92 Q244.212 3512.65 241.134 3517.26 Q238.078 3521.84 232.268 3521.84 Q226.458 3521.84 223.379 3517.26 Q220.324 3512.65 220.324 3503.92 Q220.324 3495.17 223.379 3490.59 Q226.458 3485.98 232.268 3485.98 Z" fill="#000000" fill-rule="nonzero" fill-opacity="1" /><path clip-path="url(#clip230)" d="M610.688 3489.69 Q607.077 3489.69 605.248 3493.25 Q603.442 3496.79 603.442 3503.92 Q603.442 3511.03 605.248 3514.59 Q607.077 3518.14 610.688 3518.14 Q614.322 3518.14 616.128 3514.59 Q617.956 3511.03 617.956 3503.92 Q617.956 3496.79 616.128 3493.25 Q614.322 3489.69 610.688 3489.69 M610.688 3485.98 Q616.498 3485.98 619.553 3490.59 Q622.632 3495.17 622.632 3503.92 Q622.632 3512.65 619.553 3517.26 Q616.498 3521.84 610.688 3521.84 Q604.878 3521.84 601.799 3517.26 Q598.743 3512.65 598.743 3503.92 Q598.743 3495.17 601.799 3490.59 Q604.878 3485.98 610.688 3485.98 Z" fill="#000000" fill-rule="nonzero" fill-opacity="1" /><path clip-path="url(#clip230)" d="M630.85 3515.29 L635.734 3515.29 L635.734 3521.17 L630.85 3521.17 L630.85 3515.29 Z" fill="#000000" fill-rule="nonzero" fill-opacity="1" /><path clip-path="url(#clip230)" d="M645.965 3486.61 L664.322 3486.61 L664.322 3490.54 L650.248 3490.54 L650.248 3499.02 Q651.266 3498.67 652.285 3498.51 Q653.303 3498.32 654.322 3498.32 Q660.109 3498.32 663.488 3501.49 Q666.868 3504.66 666.868 3510.08 Q666.868 3515.66 663.396 3518.76 Q659.924 3521.84 653.604 3521.84 Q651.428 3521.84 649.16 3521.47 Q646.914 3521.1 644.507 3520.36 L644.507 3515.66 Q646.59 3516.79 648.813 3517.35 Q651.035 3517.9 653.512 3517.9 Q657.516 3517.9 659.854 3515.8 Q662.192 3513.69 662.192 3510.08 Q662.192 3506.47 659.854 3504.36 Q657.516 3502.26 653.512 3502.26 Q651.637 3502.26 649.762 3502.67 Q647.91 3503.09 645.965 3503.97 L645.965 3486.61 Z" fill="#000000" fill-rule="nonzero" fill-opacity="1" /><path clip-path="url(#clip230)" d="M1023.11 3517.23 L1030.75 3517.23 L1030.75 3490.87 L1022.44 3492.53 L1022.44 3488.27 L1030.7 3486.61 L1035.38 3486.61 L1035.38 3517.23 L1043.02 3517.23 L1043.02 3521.17 L1023.11 3521.17 L1023.11 3517.23 Z" fill="#000000" fill-rule="nonzero" fill-opacity="1" /><path clip-path="url(#clip230)" d="M1052.46 3515.29 L1057.35 3515.29 L1057.35 3521.17 L1052.46 3521.17 L1052.46 3515.29 Z" fill="#000000" fill-rule="nonzero" fill-opacity="1" /><path clip-path="url(#clip230)" d="M1077.53 3489.69 Q1073.92 3489.69 1072.09 3493.25 Q1070.29 3496.79 1070.29 3503.92 Q1070.29 3511.03 1072.09 3514.59 Q1073.92 3518.14 1077.53 3518.14 Q1081.17 3518.14 1082.97 3514.59 Q1084.8 3511.03 1084.8 3503.92 Q1084.8 3496.79 1082.97 3493.25 Q1081.17 3489.69 1077.53 3489.69 M1077.53 3485.98 Q1083.34 3485.98 1086.4 3490.59 Q1089.48 3495.17 1089.48 3503.92 Q1089.48 3512.65 1086.4 3517.26 Q1083.34 3521.84 1077.53 3521.84 Q1071.72 3521.84 1068.64 3517.26 Q1065.59 3512.65 1065.59 3503.92 Q1065.59 3495.17 1068.64 3490.59 Q1071.72 3485.98 1077.53 3485.98 Z" fill="#000000" fill-rule="nonzero" fill-opacity="1" /><path clip-path="url(#clip230)" d="M1446.76 3517.23 L1454.4 3517.23 L1454.4 3490.87 L1446.09 3492.53 L1446.09 3488.27 L1454.36 3486.61 L1459.03 3486.61 L1459.03 3517.23 L1466.67 3517.23 L1466.67 3521.17 L1446.76 3521.17 L1446.76 3517.23 Z" fill="#000000" fill-rule="nonzero" fill-opacity="1" /><path clip-path="url(#clip230)" d="M1476.11 3515.29 L1481 3515.29 L1481 3521.17 L1476.11 3521.17 L1476.11 3515.29 Z" fill="#000000" fill-rule="nonzero" fill-opacity="1" /><path clip-path="url(#clip230)" d="M1491.23 3486.61 L1509.59 3486.61 L1509.59 3490.54 L1495.51 3490.54 L1495.51 3499.02 Q1496.53 3498.67 1497.55 3498.51 Q1498.57 3498.32 1499.59 3498.32 Q1505.37 3498.32 1508.75 3501.49 Q1512.13 3504.66 1512.13 3510.08 Q1512.13 3515.66 1508.66 3518.76 Q1505.19 3521.84 1498.87 3521.84 Q1496.69 3521.84 1494.42 3521.47 Q1492.18 3521.1 1489.77 3520.36 L1489.77 3515.66 Q1491.86 3516.79 1494.08 3517.35 Q1496.3 3517.9 1498.78 3517.9 Q1502.78 3517.9 1505.12 3515.8 Q1507.46 3513.69 1507.46 3510.08 Q1507.46 3506.47 1505.12 3504.36 Q1502.78 3502.26 1498.78 3502.26 Q1496.9 3502.26 1495.03 3502.67 Q1493.17 3503.09 1491.23 3503.97 L1491.23 3486.61 Z" fill="#000000" fill-rule="nonzero" fill-opacity="1" /><path clip-path="url(#clip230)" d="M1873.5 3517.23 L1889.82 3517.23 L1889.82 3521.17 L1867.88 3521.17 L1867.88 3517.23 Q1870.54 3514.48 1875.12 3509.85 Q1879.73 3505.2 1880.91 3503.85 Q1883.16 3501.33 1884.04 3499.59 Q1884.94 3497.83 1884.94 3496.14 Q1884.94 3493.39 1882.99 3491.65 Q1881.07 3489.92 1877.97 3489.92 Q1875.77 3489.92 1873.32 3490.68 Q1870.89 3491.45 1868.11 3493 L1868.11 3488.27 Q1870.93 3487.14 1873.39 3486.56 Q1875.84 3485.98 1877.88 3485.98 Q1883.25 3485.98 1886.44 3488.67 Q1889.64 3491.35 1889.64 3495.84 Q1889.64 3497.97 1888.83 3499.89 Q1888.04 3501.79 1885.93 3504.39 Q1885.36 3505.06 1882.25 3508.27 Q1879.15 3511.47 1873.5 3517.23 Z" fill="#000000" fill-rule="nonzero" fill-opacity="1" /><path clip-path="url(#clip230)" d="M1899.64 3515.29 L1904.52 3515.29 L1904.52 3521.17 L1899.64 3521.17 L1899.64 3515.29 Z" fill="#000000" fill-rule="nonzero" fill-opacity="1" /><path clip-path="url(#clip230)" d="M1924.71 3489.69 Q1921.1 3489.69 1919.27 3493.25 Q1917.46 3496.79 1917.46 3503.92 Q1917.46 3511.03 1919.27 3514.59 Q1921.1 3518.14 1924.71 3518.14 Q1928.34 3518.14 1930.15 3514.59 Q1931.98 3511.03 1931.98 3503.92 Q1931.98 3496.79 1930.15 3493.25 Q1928.34 3489.69 1924.71 3489.69 M1924.71 3485.98 Q1930.52 3485.98 1933.57 3490.59 Q1936.65 3495.17 1936.65 3503.92 Q1936.65 3512.65 1933.57 3517.26 Q1930.52 3521.84 1924.71 3521.84 Q1918.9 3521.84 1915.82 3517.26 Q1912.76 3512.65 1912.76 3503.92 Q1912.76 3495.17 1915.82 3490.59 Q1918.9 3485.98 1924.71 3485.98 Z" fill="#000000" fill-rule="nonzero" fill-opacity="1" /><polyline clip-path="url(#clip234)" style="stroke:#000000; stroke-linecap:round; stroke-linejoin:round; stroke-width:2; stroke-opacity:0.1; fill:none" points="159.162,3176.09 1952.76,3176.09 "/>
<polyline clip-path="url(#clip234)" style="stroke:#000000; stroke-linecap:round; stroke-linejoin:round; stroke-width:2; stroke-opacity:0.1; fill:none" points="159.162,2837.29 1952.76,2837.29 "/>
<polyline clip-path="url(#clip234)" style="stroke:#000000; stroke-linecap:round; stroke-linejoin:round; stroke-width:2; stroke-opacity:0.1; fill:none" points="159.162,2498.49 1952.76,2498.49 "/>
<polyline clip-path="url(#clip234)" style="stroke:#000000; stroke-linecap:round; stroke-linejoin:round; stroke-width:2; stroke-opacity:0.1; fill:none" points="159.162,2159.69 1952.76,2159.69 "/>
<polyline clip-path="url(#clip234)" style="stroke:#000000; stroke-linecap:round; stroke-linejoin:round; stroke-width:2; stroke-opacity:0.1; fill:none" points="159.162,1820.89 1952.76,1820.89 "/>
<polyline clip-path="url(#clip230)" style="stroke:#000000; stroke-linecap:round; stroke-linejoin:round; stroke-width:4; stroke-opacity:1; fill:none" points="209.652,3449.17 209.652,1773.47 "/>
<polyline clip-path="url(#clip230)" style="stroke:#000000; stroke-linecap:round; stroke-linejoin:round; stroke-width:4; stroke-opacity:0; fill:none" points="209.652,3176.09 209.652,3176.09 "/>
<polyline clip-path="url(#clip230)" style="stroke:#000000; stroke-linecap:round; stroke-linejoin:round; stroke-width:4; stroke-opacity:0; fill:none" points="209.652,2837.29 209.652,2837.29 "/>
<polyline clip-path="url(#clip230)" style="stroke:#000000; stroke-linecap:round; stroke-linejoin:round; stroke-width:4; stroke-opacity:0; fill:none" points="209.652,2498.49 209.652,2498.49 "/>
<polyline clip-path="url(#clip230)" style="stroke:#000000; stroke-linecap:round; stroke-linejoin:round; stroke-width:4; stroke-opacity:0; fill:none" points="209.652,2159.69 209.652,2159.69 "/>
<polyline clip-path="url(#clip230)" style="stroke:#000000; stroke-linecap:round; stroke-linejoin:round; stroke-width:4; stroke-opacity:0; fill:none" points="209.652,1820.89 209.652,1820.89 "/>
<path clip-path="url(#clip230)" d="M-1.78189 3176.54 L27.8939 3176.54 L27.8939 3180.48 L-1.78189 3180.48 L-1.78189 3176.54 Z" fill="#000000" fill-rule="nonzero" fill-opacity="1" /><path clip-path="url(#clip230)" d="M38.7966 3189.44 L46.4354 3189.44 L46.4354 3163.07 L38.1253 3164.74 L38.1253 3160.48 L46.3892 3158.81 L51.0651 3158.81 L51.0651 3189.44 L58.7039 3189.44 L58.7039 3193.37 L38.7966 3193.37 L38.7966 3189.44 Z" fill="#000000" fill-rule="nonzero" fill-opacity="1" /><path clip-path="url(#clip230)" d="M68.1483 3187.49 L73.0325 3187.49 L73.0325 3193.37 L68.1483 3193.37 L68.1483 3187.49 Z" fill="#000000" fill-rule="nonzero" fill-opacity="1" /><path clip-path="url(#clip230)" d="M93.2176 3161.89 Q89.6065 3161.89 87.7778 3165.46 Q85.9723 3169 85.9723 3176.13 Q85.9723 3183.23 87.7778 3186.8 Q89.6065 3190.34 93.2176 3190.34 Q96.8518 3190.34 98.6574 3186.8 Q100.486 3183.23 100.486 3176.13 Q100.486 3169 98.6574 3165.46 Q96.8518 3161.89 93.2176 3161.89 M93.2176 3158.19 Q99.0278 3158.19 102.083 3162.79 Q105.162 3167.38 105.162 3176.13 Q105.162 3184.85 102.083 3189.46 Q99.0278 3194.04 93.2176 3194.04 Q87.4075 3194.04 84.3288 3189.46 Q81.2732 3184.85 81.2732 3176.13 Q81.2732 3167.38 84.3288 3162.79 Q87.4075 3158.19 93.2176 3158.19 Z" fill="#000000" fill-rule="nonzero" fill-opacity="1" /><path clip-path="url(#clip230)" d="M-0.786521 2837.74 L28.8892 2837.74 L28.8892 2841.68 L-0.786521 2841.68 L-0.786521 2837.74 Z" fill="#000000" fill-rule="nonzero" fill-opacity="1" /><path clip-path="url(#clip230)" d="M48.9817 2823.09 Q45.3706 2823.09 43.5419 2826.66 Q41.7364 2830.2 41.7364 2837.33 Q41.7364 2844.43 43.5419 2848 Q45.3706 2851.54 48.9817 2851.54 Q52.616 2851.54 54.4215 2848 Q56.2502 2844.43 56.2502 2837.33 Q56.2502 2830.2 54.4215 2826.66 Q52.616 2823.09 48.9817 2823.09 M48.9817 2819.39 Q54.7919 2819.39 57.8474 2823.99 Q60.9261 2828.58 60.9261 2837.33 Q60.9261 2846.05 57.8474 2850.66 Q54.7919 2855.24 48.9817 2855.24 Q43.1716 2855.24 40.0929 2850.66 Q37.0374 2846.05 37.0374 2837.33 Q37.0374 2828.58 40.0929 2823.99 Q43.1716 2819.39 48.9817 2819.39 Z" fill="#000000" fill-rule="nonzero" fill-opacity="1" /><path clip-path="url(#clip230)" d="M69.1437 2848.69 L74.0279 2848.69 L74.0279 2854.57 L69.1437 2854.57 L69.1437 2848.69 Z" fill="#000000" fill-rule="nonzero" fill-opacity="1" /><path clip-path="url(#clip230)" d="M84.2593 2820.01 L102.616 2820.01 L102.616 2823.95 L88.5417 2823.95 L88.5417 2832.42 Q89.5602 2832.07 90.5787 2831.91 Q91.5972 2831.73 92.6158 2831.73 Q98.4028 2831.73 101.782 2834.9 Q105.162 2838.07 105.162 2843.48 Q105.162 2849.06 101.69 2852.17 Q98.2176 2855.24 91.8982 2855.24 Q89.7223 2855.24 87.4537 2854.87 Q85.2084 2854.5 82.801 2853.76 L82.801 2849.06 Q84.8843 2850.2 87.1065 2850.75 Q89.3287 2851.31 91.8056 2851.31 Q95.8102 2851.31 98.1481 2849.2 Q100.486 2847.1 100.486 2843.48 Q100.486 2839.87 98.1481 2837.77 Q95.8102 2835.66 91.8056 2835.66 Q89.9306 2835.66 88.0556 2836.08 Q86.2038 2836.49 84.2593 2837.37 L84.2593 2820.01 Z" fill="#000000" fill-rule="nonzero" fill-opacity="1" /><path clip-path="url(#clip230)" d="M47.9864 2484.29 Q44.3753 2484.29 42.5466 2487.86 Q40.741 2491.4 40.741 2498.53 Q40.741 2505.63 42.5466 2509.2 Q44.3753 2512.74 47.9864 2512.74 Q51.6206 2512.74 53.4262 2509.2 Q55.2548 2505.63 55.2548 2498.53 Q55.2548 2491.4 53.4262 2487.86 Q51.6206 2484.29 47.9864 2484.29 M47.9864 2480.59 Q53.7965 2480.59 56.8521 2485.19 Q59.9307 2489.78 59.9307 2498.53 Q59.9307 2507.25 56.8521 2511.86 Q53.7965 2516.44 47.9864 2516.44 Q42.1762 2516.44 39.0975 2511.86 Q36.042 2507.25 36.042 2498.53 Q36.042 2489.78 39.0975 2485.19 Q42.1762 2480.59 47.9864 2480.59 Z" fill="#000000" fill-rule="nonzero" fill-opacity="1" /><path clip-path="url(#clip230)" d="M68.1483 2509.89 L73.0325 2509.89 L73.0325 2515.77 L68.1483 2515.77 L68.1483 2509.89 Z" fill="#000000" fill-rule="nonzero" fill-opacity="1" /><path clip-path="url(#clip230)" d="M93.2176 2484.29 Q89.6065 2484.29 87.7778 2487.86 Q85.9723 2491.4 85.9723 2498.53 Q85.9723 2505.63 87.7778 2509.2 Q89.6065 2512.74 93.2176 2512.74 Q96.8518 2512.74 98.6574 2509.2 Q100.486 2505.63 100.486 2498.53 Q100.486 2491.4 98.6574 2487.86 Q96.8518 2484.29 93.2176 2484.29 M93.2176 2480.59 Q99.0278 2480.59 102.083 2485.19 Q105.162 2489.78 105.162 2498.53 Q105.162 2507.25 102.083 2511.86 Q99.0278 2516.44 93.2176 2516.44 Q87.4075 2516.44 84.3288 2511.86 Q81.2732 2507.25 81.2732 2498.53 Q81.2732 2489.78 84.3288 2485.19 Q87.4075 2480.59 93.2176 2480.59 Z" fill="#000000" fill-rule="nonzero" fill-opacity="1" /><path clip-path="url(#clip230)" d="M48.9817 2145.49 Q45.3706 2145.49 43.5419 2149.06 Q41.7364 2152.6 41.7364 2159.73 Q41.7364 2166.83 43.5419 2170.4 Q45.3706 2173.94 48.9817 2173.94 Q52.616 2173.94 54.4215 2170.4 Q56.2502 2166.83 56.2502 2159.73 Q56.2502 2152.6 54.4215 2149.06 Q52.616 2145.49 48.9817 2145.49 M48.9817 2141.79 Q54.7919 2141.79 57.8474 2146.39 Q60.9261 2150.98 60.9261 2159.73 Q60.9261 2168.45 57.8474 2173.06 Q54.7919 2177.64 48.9817 2177.64 Q43.1716 2177.64 40.0929 2173.06 Q37.0374 2168.45 37.0374 2159.73 Q37.0374 2150.98 40.0929 2146.39 Q43.1716 2141.79 48.9817 2141.79 Z" fill="#000000" fill-rule="nonzero" fill-opacity="1" /><path clip-path="url(#clip230)" d="M69.1437 2171.09 L74.0279 2171.09 L74.0279 2176.97 L69.1437 2176.97 L69.1437 2171.09 Z" fill="#000000" fill-rule="nonzero" fill-opacity="1" /><path clip-path="url(#clip230)" d="M84.2593 2142.41 L102.616 2142.41 L102.616 2146.35 L88.5417 2146.35 L88.5417 2154.82 Q89.5602 2154.47 90.5787 2154.31 Q91.5972 2154.13 92.6158 2154.13 Q98.4028 2154.13 101.782 2157.3 Q105.162 2160.47 105.162 2165.88 Q105.162 2171.46 101.69 2174.57 Q98.2176 2177.64 91.8982 2177.64 Q89.7223 2177.64 87.4537 2177.27 Q85.2084 2176.9 82.801 2176.16 L82.801 2171.46 Q84.8843 2172.6 87.1065 2173.15 Q89.3287 2173.71 91.8056 2173.71 Q95.8102 2173.71 98.1481 2171.6 Q100.486 2169.5 100.486 2165.88 Q100.486 2162.27 98.1481 2160.17 Q95.8102 2158.06 91.8056 2158.06 Q89.9306 2158.06 88.0556 2158.48 Q86.2038 2158.89 84.2593 2159.77 L84.2593 2142.41 Z" fill="#000000" fill-rule="nonzero" fill-opacity="1" /><path clip-path="url(#clip230)" d="M38.7966 1834.24 L46.4354 1834.24 L46.4354 1807.87 L38.1253 1809.54 L38.1253 1805.28 L46.3892 1803.61 L51.0651 1803.61 L51.0651 1834.24 L58.7039 1834.24 L58.7039 1838.17 L38.7966 1838.17 L38.7966 1834.24 Z" fill="#000000" fill-rule="nonzero" fill-opacity="1" /><path clip-path="url(#clip230)" d="M68.1483 1832.29 L73.0325 1832.29 L73.0325 1838.17 L68.1483 1838.17 L68.1483 1832.29 Z" fill="#000000" fill-rule="nonzero" fill-opacity="1" /><path clip-path="url(#clip230)" d="M93.2176 1806.69 Q89.6065 1806.69 87.7778 1810.26 Q85.9723 1813.8 85.9723 1820.93 Q85.9723 1828.03 87.7778 1831.6 Q89.6065 1835.14 93.2176 1835.14 Q96.8518 1835.14 98.6574 1831.6 Q100.486 1828.03 100.486 1820.93 Q100.486 1813.8 98.6574 1810.26 Q96.8518 1806.69 93.2176 1806.69 M93.2176 1802.99 Q99.0278 1802.99 102.083 1807.59 Q105.162 1812.18 105.162 1820.93 Q105.162 1829.65 102.083 1834.26 Q99.0278 1838.84 93.2176 1838.84 Q87.4075 1838.84 84.3288 1834.26 Q81.2732 1829.65 81.2732 1820.93 Q81.2732 1812.18 84.3288 1807.59 Q87.4075 1802.99 93.2176 1802.99 Z" fill="#000000" fill-rule="nonzero" fill-opacity="1" /><path clip-path="url(#clip234)" d="M1901.99 2498.49 L1899.82 2498.5 L1895.48 2498.51 L1888.99 2498.58 L1880.36 2498.72 L1869.61 2498.99 L1856.78 2499.46 L1841.88 2500.2 L1824.97 2501.28 L1806.09 2502.79 L1785.28 2504.82 L1762.6 2507.47 L1738.11 2510.83 L1711.86 2515 L1683.93 2520.07 L1654.39 2526.14 L1623.31 2533.28 L1590.78 2541.57 L1556.87 2551.09 L1521.68 2561.87 L1485.29 2573.99 L1447.8 2587.45 L1409.3 2602.29 L1369.9 2618.5 L1329.69 2636.09 L1288.77 2655.02 L1247.26 2675.26 L1205.26 2696.75 L1162.88 2719.44 L1120.22 2743.24 L1077.4 2768.06 L1034.52 2793.81 L991.696 2820.37 L949.038 2847.62 L906.654 2875.45 L864.653 2903.71 L823.143 2932.27 L782.231 2961.01 L742.022 2989.77 L702.618 3018.42 L664.122 3046.83 L626.631 3074.86 L590.243 3102.37 L555.05 3129.25 L521.142 3155.38 L488.608 3180.63 L457.53 3204.91 L427.988 3228.12 L400.058 3250.15 L373.812 3270.94 L349.317 3290.39 L326.636 3308.45 L305.827 3325.04 L286.943 3340.12 L270.034 3353.64 L255.142 3365.55 L242.306 3375.82 L231.558 3384.42 L222.927 3391.33 L216.434 3396.53 L212.096 3400 L209.924 3401.74 L209.924 2498.49 L212.096 2498.49 L216.434 2498.49 L222.927 2498.49 L231.558 2498.49 L242.306 2498.49 L255.142 2498.49 L270.034 2498.49 L286.943 2498.49 L305.827 2498.49 L326.636 2498.49 L349.317 2498.49 L373.812 2498.49 L400.058 2498.49 L427.988 2498.49 L457.53 2498.49 L488.608 2498.49 L521.142 2498.49 L555.05 2498.49 L590.243 2498.49 L626.631 2498.49 L664.122 2498.49 L702.618 2498.49 L742.022 2498.49 L782.231 2498.49 L823.143 2498.49 L864.653 2498.49 L906.654 2498.49 L949.038 2498.49 L991.696 2498.49 L1034.52 2498.49 L1077.4 2498.49 L1120.22 2498.49 L1162.88 2498.49 L1205.26 2498.49 L1247.26 2498.49 L1288.77 2498.49 L1329.69 2498.49 L1369.9 2498.49 L1409.3 2498.49 L1447.8 2498.49 L1485.29 2498.49 L1521.68 2498.49 L1556.87 2498.49 L1590.78 2498.49 L1623.31 2498.49 L1654.39 2498.49 L1683.93 2498.49 L1711.86 2498.49 L1738.11 2498.49 L1762.6 2498.49 L1785.28 2498.49 L1806.09 2498.49 L1824.97 2498.49 L1841.88 2498.49 L1856.78 2498.49 L1869.61 2498.49 L1880.36 2498.49 L1888.99 2498.49 L1895.48 2498.49 L1899.82 2498.49 L1901.99 2498.49  Z" fill="#0000ff" fill-rule="evenodd" fill-opacity="0.15"/>
<polyline clip-path="url(#clip234)" style="stroke:#0000ff; stroke-linecap:round; stroke-linejoin:round; stroke-width:12; stroke-opacity:1; fill:none" points="1901.99,2498.49 1899.82,2498.5 1895.48,2498.51 1888.99,2498.58 1880.36,2498.72 1869.61,2498.99 1856.78,2499.46 1841.88,2500.2 1824.97,2501.28 1806.09,2502.79 1785.28,2504.82 1762.6,2507.47 1738.11,2510.83 1711.86,2515 1683.93,2520.07 1654.39,2526.14 1623.31,2533.28 1590.78,2541.57 1556.87,2551.09 1521.68,2561.87 1485.29,2573.99 1447.8,2587.45 1409.3,2602.29 1369.9,2618.5 1329.69,2636.09 1288.77,2655.02 1247.26,2675.26 1205.26,2696.75 1162.88,2719.44 1120.22,2743.24 1077.4,2768.06 1034.52,2793.81 991.696,2820.37 949.038,2847.62 906.654,2875.45 864.653,2903.71 823.143,2932.27 782.231,2961.01 742.022,2989.77 702.618,3018.42 664.122,3046.83 626.631,3074.86 590.243,3102.37 555.05,3129.25 521.142,3155.38 488.608,3180.63 457.53,3204.91 427.988,3228.12 400.058,3250.15 373.812,3270.94 349.317,3290.39 326.636,3308.45 305.827,3325.04 286.943,3340.12 270.034,3353.64 255.142,3365.55 242.306,3375.82 231.558,3384.42 222.927,3391.33 216.434,3396.53 212.096,3400 209.924,3401.74 "/>
<path clip-path="url(#clip234)" d="M1901.97 2498.25 L1899.57 2496.33 L1894.78 2492.51 L1887.61 2486.81 L1878.09 2479.27 L1866.23 2469.95 L1852.08 2458.91 L1835.67 2446.22 L1817.05 2431.98 L1796.28 2416.29 L1773.4 2399.24 L1748.49 2380.97 L1721.62 2361.58 L1692.86 2341.21 L1662.3 2319.98 L1630.02 2298.05 L1596.11 2275.54 L1560.67 2252.59 L1523.8 2229.35 L1485.6 2205.95 L1446.18 2182.53 L1405.66 2159.21 L1364.15 2136.13 L1321.76 2113.41 L1278.62 2091.16 L1234.85 2069.48 L1190.58 2048.47 L1145.92 2028.22 L1101 2008.8 L1055.96 1990.29 L1010.92 1972.74 L966.002 1956.19 L921.342 1940.69 L877.064 1926.25 L833.294 1912.88 L790.154 1900.59 L747.767 1889.38 L706.255 1879.22 L665.733 1870.09 L626.318 1861.95 L588.121 1854.77 L551.249 1848.49 L515.809 1843.06 L481.899 1838.42 L449.617 1834.51 L419.053 1831.26 L390.295 1828.61 L363.424 1826.48 L338.516 1824.82 L315.641 1823.55 L294.865 1822.61 L276.247 1821.94 L259.838 1821.49 L245.686 1821.2 L233.832 1821.03 L224.307 1820.94 L217.14 1820.91 L212.35 1820.89 L209.952 1820.89 L209.952 2498.49 L212.35 2498.49 L217.14 2498.49 L224.307 2498.49 L233.832 2498.49 L245.686 2498.49 L259.838 2498.49 L276.247 2498.49 L294.865 2498.49 L315.641 2498.49 L338.516 2498.49 L363.424 2498.49 L390.295 2498.49 L419.053 2498.49 L449.617 2498.49 L481.899 2498.49 L515.809 2498.49 L551.249 2498.49 L588.121 2498.49 L626.318 2498.49 L665.733 2498.49 L706.255 2498.49 L747.767 2498.49 L790.154 2498.49 L833.294 2498.49 L877.064 2498.49 L921.342 2498.49 L966.002 2498.49 L1010.92 2498.49 L1055.96 2498.49 L1101 2498.49 L1145.92 2498.49 L1190.58 2498.49 L1234.85 2498.49 L1278.62 2498.49 L1321.76 2498.49 L1364.15 2498.49 L1405.66 2498.49 L1446.18 2498.49 L1485.6 2498.49 L1523.8 2498.49 L1560.67 2498.49 L1596.11 2498.49 L1630.02 2498.49 L1662.3 2498.49 L1692.86 2498.49 L1721.62 2498.49 L1748.49 2498.49 L1773.4 2498.49 L1796.28 2498.49 L1817.05 2498.49 L1835.67 2498.49 L1852.08 2498.49 L1866.23 2498.49 L1878.09 2498.49 L1887.61 2498.49 L1894.78 2498.49 L1899.57 2498.49 L1901.97 2498.49  Z" fill="#008000" fill-rule="evenodd" fill-opacity="0.15"/>
<polyline clip-path="url(#clip234)" style="stroke:#008000; stroke-linecap:round; stroke-linejoin:round; stroke-width:12; stroke-opacity:1; fill:none" points="1901.97,2498.25 1899.57,2496.33 1894.78,2492.51 1887.61,2486.81 1878.09,2479.27 1866.23,2469.95 1852.08,2458.91 1835.67,2446.22 1817.05,2431.98 1796.28,2416.29 1773.4,2399.24 1748.49,2380.97 1721.62,2361.58 1692.86,2341.21 1662.3,2319.98 1630.02,2298.05 1596.11,2275.54 1560.67,2252.59 1523.8,2229.35 1485.6,2205.95 1446.18,2182.53 1405.66,2159.21 1364.15,2136.13 1321.76,2113.41 1278.62,2091.16 1234.85,2069.48 1190.58,2048.47 1145.92,2028.22 1101,2008.8 1055.96,1990.29 1010.92,1972.74 966.002,1956.19 921.342,1940.69 877.064,1926.25 833.294,1912.88 790.154,1900.59 747.767,1889.38 706.255,1879.22 665.733,1870.09 626.318,1861.95 588.121,1854.77 551.249,1848.49 515.809,1843.06 481.899,1838.42 449.617,1834.51 419.053,1831.26 390.295,1828.61 363.424,1826.48 338.516,1824.82 315.641,1823.55 294.865,1822.61 276.247,1821.94 259.838,1821.49 245.686,1821.2 233.832,1821.03 224.307,1820.94 217.14,1820.91 212.35,1820.89 209.952,1820.89 "/>
<path clip-path="url(#clip234)" d="M1901.93 1821.03 L1899.27 1822.09 L1893.96 1824.22 L1886 1827.4 L1875.44 1831.63 L1862.3 1836.89 L1846.62 1843.17 L1828.45 1850.44 L1807.86 1858.69 L1784.89 1867.88 L1759.64 1877.99 L1732.17 1888.99 L1702.57 1900.84 L1670.94 1913.5 L1637.37 1926.94 L1601.97 1941.11 L1564.86 1955.97 L1526.14 1971.47 L1485.95 1987.56 L1444.4 2004.19 L1401.63 2021.31 L1357.77 2038.87 L1312.96 2056.81 L1267.35 2075.07 L1221.07 2093.6 L1174.26 2112.33 L1127.09 2131.22 L1079.69 2150.19 L1032.22 2169.19 L984.826 2188.17 L937.653 2207.05 L890.853 2225.79 L844.571 2244.32 L798.955 2262.58 L754.148 2280.52 L710.29 2298.07 L667.52 2315.2 L625.971 2331.83 L585.776 2347.92 L547.06 2363.42 L509.946 2378.28 L474.549 2392.45 L440.982 2405.89 L409.349 2418.55 L379.751 2430.4 L352.281 2441.39 L327.024 2451.51 L304.062 2460.7 L283.465 2468.94 L265.298 2476.22 L249.619 2482.49 L236.477 2487.75 L225.914 2491.98 L217.962 2495.17 L212.647 2497.29 L209.985 2498.36 L209.985 2498.49 L212.647 2498.49 L217.962 2498.49 L225.914 2498.49 L236.477 2498.49 L249.619 2498.49 L265.298 2498.49 L283.465 2498.49 L304.062 2498.49 L327.024 2498.49 L352.281 2498.49 L379.751 2498.49 L409.349 2498.49 L440.982 2498.49 L474.549 2498.49 L509.946 2498.49 L547.06 2498.49 L585.776 2498.49 L625.971 2498.49 L667.52 2498.49 L710.29 2498.49 L754.148 2498.49 L798.955 2498.49 L844.571 2498.49 L890.853 2498.49 L937.653 2498.49 L984.826 2498.49 L1032.22 2498.49 L1079.69 2498.49 L1127.09 2498.49 L1174.26 2498.49 L1221.07 2498.49 L1267.35 2498.49 L1312.96 2498.49 L1357.77 2498.49 L1401.63 2498.49 L1444.4 2498.49 L1485.95 2498.49 L1526.14 2498.49 L1564.86 2498.49 L1601.97 2498.49 L1637.37 2498.49 L1670.94 2498.49 L1702.57 2498.49 L1732.17 2498.49 L1759.64 2498.49 L1784.89 2498.49 L1807.86 2498.49 L1828.45 2498.49 L1846.62 2498.49 L1862.3 2498.49 L1875.44 2498.49 L1886 2498.49 L1893.96 2498.49 L1899.27 2498.49 L1901.93 2498.49  Z" fill="#ff0000" fill-rule="evenodd" fill-opacity="0.15"/>
<polyline clip-path="url(#clip234)" style="stroke:#ff0000; stroke-linecap:round; stroke-linejoin:round; stroke-width:12; stroke-opacity:1; fill:none" points="1901.93,1821.03 1899.27,1822.09 1893.96,1824.22 1886,1827.4 1875.44,1831.63 1862.3,1836.89 1846.62,1843.17 1828.45,1850.44 1807.86,1858.69 1784.89,1867.88 1759.64,1877.99 1732.17,1888.99 1702.57,1900.84 1670.94,1913.5 1637.37,1926.94 1601.97,1941.11 1564.86,1955.97 1526.14,1971.47 1485.95,1987.56 1444.4,2004.19 1401.63,2021.31 1357.77,2038.87 1312.96,2056.81 1267.35,2075.07 1221.07,2093.6 1174.26,2112.33 1127.09,2131.22 1079.69,2150.19 1032.22,2169.19 984.826,2188.17 937.653,2207.05 890.853,2225.79 844.571,2244.32 798.955,2262.58 754.148,2280.52 710.29,2298.07 667.52,2315.2 625.971,2331.83 585.776,2347.92 547.06,2363.42 509.946,2378.28 474.549,2392.45 440.982,2405.89 409.349,2418.55 379.751,2430.4 352.281,2441.39 327.024,2451.51 304.062,2460.7 283.465,2468.94 265.298,2476.22 249.619,2482.49 236.477,2487.75 225.914,2491.98 217.962,2495.17 212.647,2497.29 209.985,2498.36 "/>
<path clip-path="url(#clip230)" d="M1276.88 3393.31 L1892.97 3393.31 L1892.97 3185.95 L1276.88 3185.95  Z" fill="#ffffff" fill-rule="evenodd" fill-opacity="1"/>
<polyline clip-path="url(#clip230)" style="stroke:#000000; stroke-linecap:round; stroke-linejoin:round; stroke-width:4; stroke-opacity:1; fill:none" points="1276.88,3393.31 1892.97,3393.31 1892.97,3185.95 1276.88,3185.95 1276.88,3393.31 "/>
<path clip-path="url(#clip230)" d="M1296.81 3258.53 L1416.38 3258.53 L1416.38 3217.06 L1296.81 3217.06 L1296.81 3258.53  Z" fill="#0000ff" fill-rule="evenodd" fill-opacity="0.15"/>
<polyline clip-path="url(#clip230)" style="stroke:#0000ff; stroke-linecap:round; stroke-linejoin:round; stroke-width:12; stroke-opacity:1; fill:none" points="1296.81,3217.06 1416.38,3217.06 "/>
<path clip-path="url(#clip230)" d="M1436.31 3220.51 L1443.27 3220.51 L1452.09 3244.03 L1460.96 3220.51 L1467.93 3220.51 L1467.93 3255.07 L1463.37 3255.07 L1463.37 3224.72 L1454.45 3248.43 L1449.76 3248.43 L1440.84 3224.72 L1440.84 3255.07 L1436.31 3255.07 L1436.31 3220.51 Z" fill="#000000" fill-rule="nonzero" fill-opacity="1" /><path clip-path="url(#clip230)" d="M1487.07 3232.13 Q1483.64 3232.13 1481.65 3234.82 Q1479.66 3237.48 1479.66 3242.13 Q1479.66 3246.78 1481.63 3249.47 Q1483.62 3252.13 1487.07 3252.13 Q1490.47 3252.13 1492.46 3249.45 Q1494.45 3246.76 1494.45 3242.13 Q1494.45 3237.52 1492.46 3234.84 Q1490.47 3232.13 1487.07 3232.13 M1487.07 3228.52 Q1492.63 3228.52 1495.8 3232.13 Q1498.97 3235.74 1498.97 3242.13 Q1498.97 3248.5 1495.8 3252.13 Q1492.63 3255.74 1487.07 3255.74 Q1481.49 3255.74 1478.32 3252.13 Q1475.17 3248.5 1475.17 3242.13 Q1475.17 3235.74 1478.32 3232.13 Q1481.49 3228.52 1487.07 3228.52 Z" fill="#000000" fill-rule="nonzero" fill-opacity="1" /><path clip-path="url(#clip230)" d="M1526.21 3234.12 Q1527.81 3231.25 1530.03 3229.89 Q1532.26 3228.52 1535.26 3228.52 Q1539.32 3228.52 1541.51 3231.37 Q1543.71 3234.19 1543.71 3239.42 L1543.71 3255.07 L1539.43 3255.07 L1539.43 3239.56 Q1539.43 3235.84 1538.11 3234.03 Q1536.79 3232.22 1534.08 3232.22 Q1530.77 3232.22 1528.85 3234.42 Q1526.93 3236.62 1526.93 3240.42 L1526.93 3255.07 L1522.65 3255.07 L1522.65 3239.56 Q1522.65 3235.81 1521.33 3234.03 Q1520.01 3232.22 1517.26 3232.22 Q1513.99 3232.22 1512.07 3234.45 Q1510.15 3236.65 1510.15 3240.42 L1510.15 3255.07 L1505.87 3255.07 L1505.87 3229.15 L1510.15 3229.15 L1510.15 3233.17 Q1511.61 3230.79 1513.64 3229.65 Q1515.68 3228.52 1518.48 3228.52 Q1521.31 3228.52 1523.27 3229.96 Q1525.26 3231.39 1526.21 3234.12 Z" fill="#000000" fill-rule="nonzero" fill-opacity="1" /><path clip-path="url(#clip230)" d="M1574.38 3241.04 L1574.38 3243.13 L1554.8 3243.13 Q1555.08 3247.52 1557.44 3249.84 Q1559.82 3252.13 1564.06 3252.13 Q1566.51 3252.13 1568.81 3251.53 Q1571.12 3250.93 1573.39 3249.72 L1573.39 3253.75 Q1571.1 3254.72 1568.69 3255.23 Q1566.28 3255.74 1563.81 3255.74 Q1557.6 3255.74 1553.97 3252.13 Q1550.36 3248.52 1550.36 3242.36 Q1550.36 3236 1553.78 3232.27 Q1557.23 3228.52 1563.07 3228.52 Q1568.3 3228.52 1571.33 3231.9 Q1574.38 3235.26 1574.38 3241.04 M1570.13 3239.79 Q1570.08 3236.3 1568.16 3234.21 Q1566.26 3232.13 1563.11 3232.13 Q1559.55 3232.13 1557.39 3234.15 Q1555.26 3236.16 1554.94 3239.82 L1570.13 3239.79 Z" fill="#000000" fill-rule="nonzero" fill-opacity="1" /><path clip-path="url(#clip230)" d="M1601.56 3234.12 Q1603.16 3231.25 1605.38 3229.89 Q1607.6 3228.52 1610.61 3228.52 Q1614.66 3228.52 1616.86 3231.37 Q1619.06 3234.19 1619.06 3239.42 L1619.06 3255.07 L1614.78 3255.07 L1614.78 3239.56 Q1614.78 3235.84 1613.46 3234.03 Q1612.14 3232.22 1609.43 3232.22 Q1606.12 3232.22 1604.2 3234.42 Q1602.28 3236.62 1602.28 3240.42 L1602.28 3255.07 L1598 3255.07 L1598 3239.56 Q1598 3235.81 1596.68 3234.03 Q1595.36 3232.22 1592.6 3232.22 Q1589.34 3232.22 1587.42 3234.45 Q1585.5 3236.65 1585.5 3240.42 L1585.5 3255.07 L1581.21 3255.07 L1581.21 3229.15 L1585.5 3229.15 L1585.5 3233.17 Q1586.95 3230.79 1588.99 3229.65 Q1591.03 3228.52 1593.83 3228.52 Q1596.65 3228.52 1598.62 3229.96 Q1600.61 3231.39 1601.56 3234.12 Z" fill="#000000" fill-rule="nonzero" fill-opacity="1" /><path clip-path="url(#clip230)" d="M1649.73 3241.04 L1649.73 3243.13 L1630.15 3243.13 Q1630.43 3247.52 1632.79 3249.84 Q1635.17 3252.13 1639.41 3252.13 Q1641.86 3252.13 1644.15 3251.53 Q1646.47 3250.93 1648.74 3249.72 L1648.74 3253.75 Q1646.44 3254.72 1644.04 3255.23 Q1641.63 3255.74 1639.15 3255.74 Q1632.95 3255.74 1629.32 3252.13 Q1625.7 3248.52 1625.7 3242.36 Q1625.7 3236 1629.13 3232.27 Q1632.58 3228.52 1638.41 3228.52 Q1643.64 3228.52 1646.68 3231.9 Q1649.73 3235.26 1649.73 3241.04 M1645.47 3239.79 Q1645.43 3236.3 1643.5 3234.21 Q1641.61 3232.13 1638.46 3232.13 Q1634.89 3232.13 1632.74 3234.15 Q1630.61 3236.16 1630.29 3239.82 L1645.47 3239.79 Z" fill="#000000" fill-rule="nonzero" fill-opacity="1" /><path clip-path="url(#clip230)" d="M1678.27 3239.42 L1678.27 3255.07 L1674.01 3255.07 L1674.01 3239.56 Q1674.01 3235.88 1672.58 3234.05 Q1671.14 3232.22 1668.27 3232.22 Q1664.82 3232.22 1662.83 3234.42 Q1660.84 3236.62 1660.84 3240.42 L1660.84 3255.07 L1656.56 3255.07 L1656.56 3229.15 L1660.84 3229.15 L1660.84 3233.17 Q1662.37 3230.84 1664.43 3229.68 Q1666.51 3228.52 1669.22 3228.52 Q1673.69 3228.52 1675.98 3231.3 Q1678.27 3234.05 1678.27 3239.42 Z" fill="#000000" fill-rule="nonzero" fill-opacity="1" /><path clip-path="url(#clip230)" d="M1690.98 3221.78 L1690.98 3229.15 L1699.75 3229.15 L1699.75 3232.46 L1690.98 3232.46 L1690.98 3246.53 Q1690.98 3249.7 1691.84 3250.6 Q1692.72 3251.51 1695.38 3251.51 L1699.75 3251.51 L1699.75 3255.07 L1695.38 3255.07 Q1690.45 3255.07 1688.57 3253.24 Q1686.7 3251.39 1686.7 3246.53 L1686.7 3232.46 L1683.57 3232.46 L1683.57 3229.15 L1686.7 3229.15 L1686.7 3221.78 L1690.98 3221.78 Z" fill="#000000" fill-rule="nonzero" fill-opacity="1" /><path clip-path="url(#clip230)" d="M1720.03 3219.05 L1729.85 3219.05 L1729.85 3222.36 L1724.29 3222.36 L1724.29 3258.01 L1729.85 3258.01 L1729.85 3261.32 L1720.03 3261.32 L1720.03 3219.05 Z" fill="#000000" fill-rule="nonzero" fill-opacity="1" /><path clip-path="url(#clip230)" d="M1738.76 3219.05 L1743.04 3219.05 L1743.04 3240.33 L1755.75 3229.15 L1761.19 3229.15 L1747.44 3241.27 L1761.77 3255.07 L1756.21 3255.07 L1743.04 3242.41 L1743.04 3255.07 L1738.76 3255.07 L1738.76 3219.05 Z" fill="#000000" fill-rule="nonzero" fill-opacity="1" /><path clip-path="url(#clip230)" d="M1766.56 3220.51 L1772.86 3220.51 L1788.18 3249.42 L1788.18 3220.51 L1792.72 3220.51 L1792.72 3255.07 L1786.42 3255.07 L1771.1 3226.16 L1771.1 3255.07 L1766.56 3255.07 L1766.56 3220.51 Z" fill="#000000" fill-rule="nonzero" fill-opacity="1" /><path clip-path="url(#clip230)" d="M1802.44 3235.67 L1807.32 3235.67 L1807.32 3241.55 L1802.44 3241.55 L1802.44 3235.67 Z" fill="#000000" fill-rule="nonzero" fill-opacity="1" /><path clip-path="url(#clip230)" d="M1837.09 3234.12 Q1838.69 3231.25 1840.91 3229.89 Q1843.13 3228.52 1846.14 3228.52 Q1850.19 3228.52 1852.39 3231.37 Q1854.59 3234.19 1854.59 3239.42 L1854.59 3255.07 L1850.31 3255.07 L1850.31 3239.56 Q1850.31 3235.84 1848.99 3234.03 Q1847.67 3232.22 1844.96 3232.22 Q1841.65 3232.22 1839.73 3234.42 Q1837.81 3236.62 1837.81 3240.42 L1837.81 3255.07 L1833.53 3255.07 L1833.53 3239.56 Q1833.53 3235.81 1832.21 3234.03 Q1830.89 3232.22 1828.13 3232.22 Q1824.87 3232.22 1822.95 3234.45 Q1821.03 3236.65 1821.03 3240.42 L1821.03 3255.07 L1816.74 3255.07 L1816.74 3229.15 L1821.03 3229.15 L1821.03 3233.17 Q1822.49 3230.79 1824.52 3229.65 Q1826.56 3228.52 1829.36 3228.52 Q1832.18 3228.52 1834.15 3229.96 Q1836.14 3231.39 1837.09 3234.12 Z" fill="#000000" fill-rule="nonzero" fill-opacity="1" /><path clip-path="url(#clip230)" d="M1873.04 3219.05 L1873.04 3261.32 L1863.23 3261.32 L1863.23 3258.01 L1868.76 3258.01 L1868.76 3222.36 L1863.23 3222.36 L1863.23 3219.05 L1873.04 3219.05 Z" fill="#000000" fill-rule="nonzero" fill-opacity="1" /><path clip-path="url(#clip230)" d="M1296.81 3310.37 L1416.38 3310.37 L1416.38 3268.9 L1296.81 3268.9 L1296.81 3310.37  Z" fill="#008000" fill-rule="evenodd" fill-opacity="0.15"/>
<polyline clip-path="url(#clip230)" style="stroke:#008000; stroke-linecap:round; stroke-linejoin:round; stroke-width:12; stroke-opacity:1; fill:none" points="1296.81,3268.9 1416.38,3268.9 "/>
<path clip-path="url(#clip230)" d="M1458.55 3273.49 L1458.55 3278.05 Q1455.89 3276.77 1453.53 3276.15 Q1451.17 3275.52 1448.97 3275.52 Q1445.15 3275.52 1443.07 3277 Q1441.01 3278.49 1441.01 3281.22 Q1441.01 3283.51 1442.37 3284.69 Q1443.76 3285.85 1447.6 3286.56 L1450.43 3287.14 Q1455.66 3288.14 1458.14 3290.66 Q1460.64 3293.16 1460.64 3297.37 Q1460.64 3302.4 1457.26 3304.99 Q1453.9 3307.58 1447.39 3307.58 Q1444.94 3307.58 1442.16 3307.03 Q1439.41 3306.47 1436.45 3305.38 L1436.45 3300.57 Q1439.29 3302.17 1442.02 3302.98 Q1444.76 3303.79 1447.39 3303.79 Q1451.4 3303.79 1453.58 3302.21 Q1455.75 3300.64 1455.75 3297.72 Q1455.75 3295.18 1454.18 3293.74 Q1452.63 3292.3 1449.06 3291.59 L1446.21 3291.03 Q1440.98 3289.99 1438.64 3287.77 Q1436.31 3285.55 1436.31 3281.59 Q1436.31 3277 1439.52 3274.37 Q1442.77 3271.73 1448.44 3271.73 Q1450.87 3271.73 1453.39 3272.17 Q1455.91 3272.61 1458.55 3273.49 Z" fill="#000000" fill-rule="nonzero" fill-opacity="1" /><path clip-path="url(#clip230)" d="M1489.29 3291.26 L1489.29 3306.91 L1485.03 3306.91 L1485.03 3291.4 Q1485.03 3287.72 1483.6 3285.89 Q1482.16 3284.06 1479.29 3284.06 Q1475.84 3284.06 1473.85 3286.26 Q1471.86 3288.46 1471.86 3292.26 L1471.86 3306.91 L1467.58 3306.91 L1467.58 3270.89 L1471.86 3270.89 L1471.86 3285.01 Q1473.39 3282.68 1475.45 3281.52 Q1477.53 3280.36 1480.24 3280.36 Q1484.71 3280.36 1487 3283.14 Q1489.29 3285.89 1489.29 3291.26 Z" fill="#000000" fill-rule="nonzero" fill-opacity="1" /><path clip-path="url(#clip230)" d="M1519.96 3292.88 L1519.96 3294.97 L1500.38 3294.97 Q1500.66 3299.36 1503.02 3301.68 Q1505.4 3303.97 1509.64 3303.97 Q1512.09 3303.97 1514.39 3303.37 Q1516.7 3302.77 1518.97 3301.56 L1518.97 3305.59 Q1516.68 3306.56 1514.27 3307.07 Q1511.86 3307.58 1509.39 3307.58 Q1503.18 3307.58 1499.55 3303.97 Q1495.94 3300.36 1495.94 3294.2 Q1495.94 3287.84 1499.36 3284.11 Q1502.81 3280.36 1508.64 3280.36 Q1513.88 3280.36 1516.91 3283.74 Q1519.96 3287.1 1519.96 3292.88 M1515.7 3291.63 Q1515.66 3288.14 1513.74 3286.05 Q1511.84 3283.97 1508.69 3283.97 Q1505.13 3283.97 1502.97 3285.99 Q1500.84 3288 1500.52 3291.66 L1515.7 3291.63 Z" fill="#000000" fill-rule="nonzero" fill-opacity="1" /><path clip-path="url(#clip230)" d="M1538.74 3293.88 Q1533.57 3293.88 1531.58 3295.06 Q1529.59 3296.24 1529.59 3299.09 Q1529.59 3301.36 1531.07 3302.7 Q1532.58 3304.02 1535.15 3304.02 Q1538.69 3304.02 1540.82 3301.52 Q1542.97 3298.99 1542.97 3294.83 L1542.97 3293.88 L1538.74 3293.88 M1547.23 3292.12 L1547.23 3306.91 L1542.97 3306.91 L1542.97 3302.98 Q1541.51 3305.34 1539.34 3306.47 Q1537.16 3307.58 1534.01 3307.58 Q1530.03 3307.58 1527.67 3305.36 Q1525.33 3303.11 1525.33 3299.36 Q1525.33 3294.99 1528.25 3292.77 Q1531.19 3290.55 1537 3290.55 L1542.97 3290.55 L1542.97 3290.13 Q1542.97 3287.19 1541.03 3285.59 Q1539.11 3283.97 1535.61 3283.97 Q1533.39 3283.97 1531.28 3284.5 Q1529.18 3285.04 1527.23 3286.1 L1527.23 3282.17 Q1529.57 3281.26 1531.77 3280.82 Q1533.97 3280.36 1536.05 3280.36 Q1541.68 3280.36 1544.45 3283.28 Q1547.23 3286.19 1547.23 3292.12 Z" fill="#000000" fill-rule="nonzero" fill-opacity="1" /><path clip-path="url(#clip230)" d="M1571.03 3284.97 Q1570.31 3284.55 1569.45 3284.36 Q1568.62 3284.16 1567.6 3284.16 Q1563.99 3284.16 1562.05 3286.52 Q1560.13 3288.86 1560.13 3293.25 L1560.13 3306.91 L1555.84 3306.91 L1555.84 3280.99 L1560.13 3280.99 L1560.13 3285.01 Q1561.47 3282.65 1563.62 3281.52 Q1565.77 3280.36 1568.85 3280.36 Q1569.29 3280.36 1569.82 3280.43 Q1570.36 3280.48 1571.01 3280.59 L1571.03 3284.97 Z" fill="#000000" fill-rule="nonzero" fill-opacity="1" /><path clip-path="url(#clip230)" d="M1590.17 3270.89 L1599.99 3270.89 L1599.99 3274.2 L1594.43 3274.2 L1594.43 3309.85 L1599.99 3309.85 L1599.99 3313.16 L1590.17 3313.16 L1590.17 3270.89 Z" fill="#000000" fill-rule="nonzero" fill-opacity="1" /><path clip-path="url(#clip230)" d="M1608.9 3270.89 L1613.18 3270.89 L1613.18 3292.17 L1625.89 3280.99 L1631.33 3280.99 L1617.58 3293.11 L1631.91 3306.91 L1626.35 3306.91 L1613.18 3294.25 L1613.18 3306.91 L1608.9 3306.91 L1608.9 3270.89 Z" fill="#000000" fill-rule="nonzero" fill-opacity="1" /><path clip-path="url(#clip230)" d="M1636.7 3272.35 L1643 3272.35 L1658.32 3301.26 L1658.32 3272.35 L1662.86 3272.35 L1662.86 3306.91 L1656.56 3306.91 L1641.24 3278 L1641.24 3306.91 L1636.7 3306.91 L1636.7 3272.35 Z" fill="#000000" fill-rule="nonzero" fill-opacity="1" /><path clip-path="url(#clip230)" d="M1681.93 3270.89 L1681.93 3313.16 L1672.12 3313.16 L1672.12 3309.85 L1677.65 3309.85 L1677.65 3274.2 L1672.12 3274.2 L1672.12 3270.89 L1681.93 3270.89 Z" fill="#000000" fill-rule="nonzero" fill-opacity="1" /><path clip-path="url(#clip230)" d="M1296.81 3362.21 L1416.38 3362.21 L1416.38 3320.74 L1296.81 3320.74 L1296.81 3362.21  Z" fill="#ff0000" fill-rule="evenodd" fill-opacity="0.15"/>
<polyline clip-path="url(#clip230)" style="stroke:#ff0000; stroke-linecap:round; stroke-linejoin:round; stroke-width:12; stroke-opacity:1; fill:none" points="1296.81,3320.74 1416.38,3320.74 "/>
<path clip-path="url(#clip230)" d="M1436.31 3324.19 L1440.98 3324.19 L1440.98 3354.82 L1457.81 3354.82 L1457.81 3358.75 L1436.31 3358.75 L1436.31 3324.19 Z" fill="#000000" fill-rule="nonzero" fill-opacity="1" /><path clip-path="url(#clip230)" d="M1471.75 3335.81 Q1468.32 3335.81 1466.33 3338.5 Q1464.34 3341.16 1464.34 3345.81 Q1464.34 3350.46 1466.31 3353.15 Q1468.3 3355.81 1471.75 3355.81 Q1475.15 3355.81 1477.14 3353.13 Q1479.13 3350.44 1479.13 3345.81 Q1479.13 3341.2 1477.14 3338.52 Q1475.15 3335.81 1471.75 3335.81 M1471.75 3332.2 Q1477.3 3332.2 1480.47 3335.81 Q1483.64 3339.42 1483.64 3345.81 Q1483.64 3352.18 1480.47 3355.81 Q1477.3 3359.42 1471.75 3359.42 Q1466.17 3359.42 1463 3355.81 Q1459.85 3352.18 1459.85 3345.81 Q1459.85 3339.42 1463 3335.81 Q1466.17 3332.2 1471.75 3332.2 Z" fill="#000000" fill-rule="nonzero" fill-opacity="1" /><path clip-path="url(#clip230)" d="M1502.49 3345.72 Q1497.33 3345.72 1495.33 3346.9 Q1493.34 3348.08 1493.34 3350.93 Q1493.34 3353.2 1494.83 3354.54 Q1496.33 3355.86 1498.9 3355.86 Q1502.44 3355.86 1504.57 3353.36 Q1506.72 3350.83 1506.72 3346.67 L1506.72 3345.72 L1502.49 3345.72 M1510.98 3343.96 L1510.98 3358.75 L1506.72 3358.75 L1506.72 3354.82 Q1505.26 3357.18 1503.09 3358.31 Q1500.91 3359.42 1497.76 3359.42 Q1493.78 3359.42 1491.42 3357.2 Q1489.08 3354.95 1489.08 3351.2 Q1489.08 3346.83 1492 3344.61 Q1494.94 3342.39 1500.75 3342.39 L1506.72 3342.39 L1506.72 3341.97 Q1506.72 3339.03 1504.78 3337.43 Q1502.86 3335.81 1499.36 3335.81 Q1497.14 3335.81 1495.03 3336.34 Q1492.93 3336.88 1490.98 3337.94 L1490.98 3334.01 Q1493.32 3333.1 1495.52 3332.66 Q1497.72 3332.2 1499.8 3332.2 Q1505.43 3332.2 1508.2 3335.12 Q1510.98 3338.03 1510.98 3343.96 Z" fill="#000000" fill-rule="nonzero" fill-opacity="1" /><path clip-path="url(#clip230)" d="M1536.82 3336.76 L1536.82 3322.73 L1541.07 3322.73 L1541.07 3358.75 L1536.82 3358.75 L1536.82 3354.86 Q1535.47 3357.18 1533.41 3358.31 Q1531.38 3359.42 1528.51 3359.42 Q1523.81 3359.42 1520.84 3355.67 Q1517.9 3351.92 1517.9 3345.81 Q1517.9 3339.7 1520.84 3335.95 Q1523.81 3332.2 1528.51 3332.2 Q1531.38 3332.2 1533.41 3333.33 Q1535.47 3334.45 1536.82 3336.76 M1522.3 3345.81 Q1522.3 3350.51 1524.22 3353.2 Q1526.17 3355.86 1529.55 3355.86 Q1532.93 3355.86 1534.87 3353.2 Q1536.82 3350.51 1536.82 3345.81 Q1536.82 3341.11 1534.87 3338.45 Q1532.93 3335.77 1529.55 3335.77 Q1526.17 3335.77 1524.22 3338.45 Q1522.3 3341.11 1522.3 3345.81 Z" fill="#000000" fill-rule="nonzero" fill-opacity="1" /><path clip-path="url(#clip230)" d="M1564.52 3322.73 L1574.34 3322.73 L1574.34 3326.04 L1568.78 3326.04 L1568.78 3361.69 L1574.34 3361.69 L1574.34 3365 L1564.52 3365 L1564.52 3322.73 Z" fill="#000000" fill-rule="nonzero" fill-opacity="1" /><path clip-path="url(#clip230)" d="M1583.25 3322.73 L1587.53 3322.73 L1587.53 3344.01 L1600.24 3332.83 L1605.68 3332.83 L1591.93 3344.95 L1606.26 3358.75 L1600.7 3358.75 L1587.53 3346.09 L1587.53 3358.75 L1583.25 3358.75 L1583.25 3322.73 Z" fill="#000000" fill-rule="nonzero" fill-opacity="1" /><path clip-path="url(#clip230)" d="M1611.05 3324.19 L1617.35 3324.19 L1632.67 3353.1 L1632.67 3324.19 L1637.21 3324.19 L1637.21 3358.75 L1630.91 3358.75 L1615.59 3329.84 L1615.59 3358.75 L1611.05 3358.75 L1611.05 3324.19 Z" fill="#000000" fill-rule="nonzero" fill-opacity="1" /><path clip-path="url(#clip230)" d="M1653.9 3324.19 L1657.83 3324.19 L1645.8 3363.15 L1641.86 3363.15 L1653.9 3324.19 Z" fill="#000000" fill-rule="nonzero" fill-opacity="1" /><path clip-path="url(#clip230)" d="M1682.49 3337.8 Q1684.08 3334.93 1686.31 3333.57 Q1688.53 3332.2 1691.54 3332.2 Q1695.59 3332.2 1697.79 3335.05 Q1699.99 3337.87 1699.99 3343.1 L1699.99 3358.75 L1695.7 3358.75 L1695.7 3343.24 Q1695.7 3339.52 1694.38 3337.71 Q1693.06 3335.9 1690.36 3335.9 Q1687.05 3335.9 1685.12 3338.1 Q1683.2 3340.3 1683.2 3344.1 L1683.2 3358.75 L1678.92 3358.75 L1678.92 3343.24 Q1678.92 3339.49 1677.6 3337.71 Q1676.28 3335.9 1673.53 3335.9 Q1670.26 3335.9 1668.34 3338.13 Q1666.42 3340.33 1666.42 3344.1 L1666.42 3358.75 L1662.14 3358.75 L1662.14 3332.83 L1666.42 3332.83 L1666.42 3336.85 Q1667.88 3334.47 1669.92 3333.33 Q1671.95 3332.2 1674.75 3332.2 Q1677.58 3332.2 1679.55 3333.64 Q1681.54 3335.07 1682.49 3337.8 Z" fill="#000000" fill-rule="nonzero" fill-opacity="1" /><path clip-path="url(#clip230)" d="M1718.43 3322.73 L1718.43 3365 L1708.62 3365 L1708.62 3361.69 L1714.15 3361.69 L1714.15 3326.04 L1708.62 3326.04 L1708.62 3322.73 L1718.43 3322.73 Z" fill="#000000" fill-rule="nonzero" fill-opacity="1" /></svg>
